<mxfile host="app.diagrams.net" modified="2023-01-12T17:19:28.068Z" agent="5.0 (Windows NT 10.0; Win64; x64) AppleWebKit/537.36 (KHTML, like Gecko) Chrome/108.0.0.0 Safari/537.36" etag="mlNBMvkuvqPmQpBSlq-k" version="20.8.5" type="github">
  <diagram id="c83rq1IKyVahyZaKWNkI" name="Page-1">
    <mxGraphModel dx="521" dy="570" grid="1" gridSize="10" guides="1" tooltips="1" connect="1" arrows="1" fold="1" page="1" pageScale="1" pageWidth="850" pageHeight="1100" math="0" shadow="0">
      <root>
        <mxCell id="0" />
        <mxCell id="1" parent="0" />
        <mxCell id="_cq7_WS7stlt5bRTaMeV-66" value="" style="rounded=0;whiteSpace=wrap;html=1;dashed=1;fillColor=none;strokeWidth=0.5;" parent="1" vertex="1">
          <mxGeometry x="375" y="485" width="175" height="215" as="geometry" />
        </mxCell>
        <mxCell id="_cq7_WS7stlt5bRTaMeV-45" value="" style="rounded=0;whiteSpace=wrap;html=1;dashed=1;fillColor=none;strokeWidth=0.5;" parent="1" vertex="1">
          <mxGeometry x="10" y="270" width="280" height="120" as="geometry" />
        </mxCell>
        <mxCell id="_cq7_WS7stlt5bRTaMeV-39" value="" style="rounded=0;whiteSpace=wrap;html=1;fillColor=none;dashed=1;" parent="1" vertex="1">
          <mxGeometry x="360" y="50" width="150" height="200" as="geometry" />
        </mxCell>
        <mxCell id="_cq7_WS7stlt5bRTaMeV-7" value="" style="rounded=0;whiteSpace=wrap;html=1;dashed=1;fillColor=none;" parent="1" vertex="1">
          <mxGeometry x="10" y="50" width="320" height="200" as="geometry" />
        </mxCell>
        <mxCell id="_cq7_WS7stlt5bRTaMeV-10" style="edgeStyle=orthogonalEdgeStyle;rounded=0;orthogonalLoop=1;jettySize=auto;html=1;exitX=0.5;exitY=1;exitDx=0;exitDy=0;exitPerimeter=0;entryX=0.5;entryY=0;entryDx=0;entryDy=0;" parent="1" source="_cq7_WS7stlt5bRTaMeV-2" target="_cq7_WS7stlt5bRTaMeV-9" edge="1">
          <mxGeometry relative="1" as="geometry">
            <Array as="points">
              <mxPoint x="105" y="280" />
              <mxPoint x="170" y="280" />
            </Array>
          </mxGeometry>
        </mxCell>
        <mxCell id="_cq7_WS7stlt5bRTaMeV-2" value="&lt;br&gt;&lt;br&gt;Vessel Performance Data" style="strokeWidth=2;html=1;shape=mxgraph.flowchart.database;whiteSpace=wrap;" parent="1" vertex="1">
          <mxGeometry x="60" y="110" width="90" height="120" as="geometry" />
        </mxCell>
        <mxCell id="_cq7_WS7stlt5bRTaMeV-12" style="edgeStyle=orthogonalEdgeStyle;rounded=0;orthogonalLoop=1;jettySize=auto;html=1;exitX=0.5;exitY=1;exitDx=0;exitDy=0;exitPerimeter=0;entryX=0.5;entryY=0;entryDx=0;entryDy=0;" parent="1" source="_cq7_WS7stlt5bRTaMeV-5" target="_cq7_WS7stlt5bRTaMeV-9" edge="1">
          <mxGeometry relative="1" as="geometry">
            <Array as="points">
              <mxPoint x="235" y="280" />
              <mxPoint x="170" y="280" />
            </Array>
          </mxGeometry>
        </mxCell>
        <mxCell id="_cq7_WS7stlt5bRTaMeV-5" value="&lt;br&gt;&lt;br&gt;Vessel Information" style="strokeWidth=2;html=1;shape=mxgraph.flowchart.database;whiteSpace=wrap;" parent="1" vertex="1">
          <mxGeometry x="190" y="110" width="90" height="120" as="geometry" />
        </mxCell>
        <mxCell id="_cq7_WS7stlt5bRTaMeV-8" value="" style="shape=image;verticalLabelPosition=bottom;labelBackgroundColor=default;verticalAlign=top;aspect=fixed;imageAspect=0;image=data:image/png,iVBORw0KGgoAAAANSUhEUgAAARwAAACxCAMAAAAh3/JWAAAA81BMVEX///80aaMoUoVRirshQV4AAAAvYZg1a6QmUIJSi7tJgLQoT34yZ6EtZqKuuMEENVZ3msGdtdGNqcrOzs6wsLCFhYXZ2dnIyMjs7Oy6uro/Pz9sbGzR0dF7e3v39/dQUFALCwumpqbg4OA0NDQcTILn5+eLi4sxMTGdnZ10dHQiIiK3t7dVVVU+Pj4cHByIiIjs8vh9lbSmw9zT3OYpKSlfX19JSUnZ4OmMobwyW4tll8OxyuHs8/ijwNtyjK57pctLZHpid4tMe69zhpdeh7aKmaieq7e8xc0tTWkAMFMUOllHYXnA0OKDk6O0wtKPtNRbe6ItRKguAAAHpUlEQVR4nO2da1vaSBSAgzC1ukW3DZBASORSJCLQCwKtba3b7ra7rt32//+anWsuiMcAZdKE837QOLnNvDlzZsDnyRgGgiAIgiDLmD9Nxsu0K6qf+Zu3j8qJuHz3Pu3K6oWqef74USEJ+8Xi5bsdih6mZm8vuRyq5/WORM/8zR5Vs5ocFj07oGf+6i1Xs6qc4uHl65x3rsmrPalmZTm8c+VYz+TqbaBmHTlUz4ec6olGzbpycqpnUc26cnKoZ3K1qGZ9OcXiQZ70TK6e31GziZwc6VkWNZvKoXq+50DPfWo2lZOH6Jnfp2ZzOcXDj5O0m7cRvevH97nZXM5BsZBlOy+vb37bopzD8v487SaujffHTWmrcp6UP2XVDnOzZTn7WbXjfT4ubVtOYb/8ZybHrG/MzbblFAqZtPMXd7N9OdRO5r4Gk240yCmUf/fSbu1qfLkpaZOTNTtHyo0WOYXyx7QbvAJHpZJWOYXys7SbnJivJd1yCuWnaTc6IVE3uuRkxc6kdJOCnEL5ddoNT8Dk75s0IqfwpPwu7aY/SC/uRp+cwpPCbdqNf4ijf0opyaHTnbQb/xBHxyjnXlAOAMoBQDkAKAcA5QCgHACUA4ByAFAOAMoBQDkAKAcA5QCgHACUA4ByAFAOAMoBQDkAKAcA5QCgHACUA4ByAFAOAMoBQDkAKAcA5QCgHACUA4ByAFAOAMoBQDkAKAcA5QCgHACUA4ByAFAOAMoBQDkAKAcA5QCgHACUA4ByAFAOAMoBQDkAKAcA5QCgHACUA4ByAFAOAMoBQDkAKAcA5QCgHACUA4ByAFAOAMoBQDkAKAcA5QCgHACUA4ByAFAOAL5+E8C7TuvFrVlYH+P9dUqv/N3Pwqo8vX9TeFn0fjbcGMY8akeTnAy8DFkyj7wwWo+cLLxGWxF51bimpQ2y8AJ2xURv5GTk1f2KrzrlZMxNaEfHQjzZWS5EIZeb0bCEU/bcqIWKtr/41y//oWEpX7QsG5et5ZtC2AJg215wMHvLoim+HW97qcrsujG8b8dblFM8LB9mcLHBAO/z4+2tHVw8+JRlN9TOfz+WrVX+M+QcfJ9k2w3Fu71Hz6brlf/6X20lYrmejVa6z4saxuTH3XXL15eTKzWM2zsr3q8rJ3dqDJZ7FvSsJyePajiTmJ515ORWDeP2KkzNq8s5+J75sRsmjJ5V5Rx8yLkahtKzmpydUMMQelaRc7krahiTV3vPk8vZKTUMGj2PyonYmQ4VZfIsGTkevBEEWQtP9z8APMGSors1sZtmJ8V/UBBCOlpv6BLFtCKL2kHRwDkPj7TPRGHDT8lPhd78TOsdqyRk3AkqEVKXB9YjZenYGZAWIbbOO1I5Vo1iVk5oq3usiMo5Z0VNy5/Rsio/rkO32nS3Z7pkqrOCARYhtRY51XnLahgHtDsN2W8qp6Z2m/Rh+WzDDQttvR1f0aC1Ow1ra/YvPKMybTQcHtt1pzEaBh3eOz+bjWaOjHpn1JB022I3O2/oyyi0+33TMF16wmkvfstqJFKnYjsqx7BbIgt2yehnt3Y1ajTEDZuGr/ybBlKzL3r50LBHssOLivuq/3d520ZhQuCBF2QI/tjZRa2pLDmP3TMqR1qJyTFMkQW75GJbzU6GQ/r850D+TeW0yMVpmwYTcQaEuG2/odIhlVat1Ns0KbBzjJqEBA+fnFUqpyq/Uzljer7vD2lJM3rPqJy62BeXY9BbGLxbae3ui/QIYaNpLRghLBUH9LkRMuJSTmUwNEVI8IQaXmIq2kWz58BWBSxSqBxywgvqasMIzg/k+Msih6WiGq8cGfjRcr24/BGxzCO7N5UzE1umGknYgDaLnuQR8iL4wxd6afCpo+nhLA6ZHFkwjY/EUTljcdCCHBlPtYGcDWkdTBWeChNaG5NvWLKtBpscquftBM0UdImrNunxrjzaUWVtnk9tEhzVjk8zw9GqM5NBeVeOqE5dZi0nhWmOH1TzQpqwwi4Tzg1VfHVezEZdSitoNo38htpQOZ31sDqXI7uhcR5vOpXjVl3XddiURkxglnYrjtfkM5+Bfjst0rDqHEc+XCtMnqGCahD7CrWnq+x2wohj2+dGdAis35GjaEl/C3IW+mFvquaFGolP2nm3AOTQ1g5F7xipPU5wtBfGibwGKOfMZYTnxOX0FjI4GyhbmzR0HQak7yhmIksCcirB41Ry/Ehf6gezAabMe0COuJAb3Cwup6FSTsBi1ts+VnRI7okhCJDjqwrWZLdqRj+xVoJJSV0Ug3Lk8DNQuSQqxzuRUdwOa7cwXmqgEZuBin4OyDHlCN4cCzl2PPhp6Dk9z7Cpw5ZtJJNTU3qpnKb4QqdZVfMj2lOnFnfXGS5OsrdOLdIpDB4HPpyQqT7aDRtk3Od7qI3G8IQxYy302KAyvmBZlmemJHLY/JLPPqmcFkNkP5F8+QXZLfpE95cqhjFc+JKEjzxW2N3DGp3JDiWGmZl9wvZ4kVze5bvbom1VcdX7h3I3MgkchZ89gpEwmBPVZ7JoXDE0Y5nxmXnPtGzDNs3gA7qpatkxlbCaadrsZ4fvD6iFB4apwzTVlDly0fjl+K6O+CVoxj/Be2bF9+vpfYJAEARBEARBEGSH+B9FjkDSEssSwQAAAABJRU5ErkJggg==;" parent="1" vertex="1">
          <mxGeometry x="18.53999999999997" y="40" width="91.46" height="57" as="geometry" />
        </mxCell>
        <mxCell id="_cq7_WS7stlt5bRTaMeV-31" style="edgeStyle=orthogonalEdgeStyle;rounded=0;orthogonalLoop=1;jettySize=auto;html=1;exitX=0.5;exitY=1;exitDx=0;exitDy=0;entryX=0.5;entryY=0;entryDx=0;entryDy=0;entryPerimeter=0;" parent="1" source="_cq7_WS7stlt5bRTaMeV-9" target="_cq7_WS7stlt5bRTaMeV-18" edge="1">
          <mxGeometry relative="1" as="geometry">
            <Array as="points">
              <mxPoint x="170" y="380" />
              <mxPoint x="260" y="380" />
            </Array>
          </mxGeometry>
        </mxCell>
        <mxCell id="_cq7_WS7stlt5bRTaMeV-9" value="Postgres Ingester" style="rounded=0;whiteSpace=wrap;html=1;fillColor=default;" parent="1" vertex="1">
          <mxGeometry x="110" y="310" width="120" height="60" as="geometry" />
        </mxCell>
        <mxCell id="_cq7_WS7stlt5bRTaMeV-17" value="" style="rounded=0;whiteSpace=wrap;html=1;fillColor=none;dashed=1;" parent="1" vertex="1">
          <mxGeometry x="80" y="430" width="240" height="310" as="geometry" />
        </mxCell>
        <mxCell id="_cq7_WS7stlt5bRTaMeV-15" value="" style="group" parent="1" vertex="1" connectable="0">
          <mxGeometry x="66" y="400" width="174" height="60" as="geometry" />
        </mxCell>
        <mxCell id="_cq7_WS7stlt5bRTaMeV-13" value="" style="rounded=0;whiteSpace=wrap;html=1;fillColor=default;strokeColor=none;" parent="_cq7_WS7stlt5bRTaMeV-15" vertex="1">
          <mxGeometry x="22" width="130" height="60" as="geometry" />
        </mxCell>
        <mxCell id="_cq7_WS7stlt5bRTaMeV-14" value="" style="shape=image;verticalLabelPosition=bottom;labelBackgroundColor=default;verticalAlign=top;aspect=fixed;imageAspect=0;image=data:image/png,iVBORw0KGgoAAAANSUhEUgAAAkQAAADICAMAAAA+0w7iAAAABGdBTUEAALGPC/xhBQAAACBjSFJNAAB6JgAAgIQAAPoAAACA6AAAdTAAAOpgAAA6mAAAF3CculE8AAACxFBMVEUAfABYV1iOMyXkVESNMySNMiPhU0PiVEXiVETiU0PjVEThVEOPNybkVkaOMyPjVUPhVESPMybiU0O8RTTiVEPmWEevRTeNMiSNMyTiVEWNMySNMyS3RDThU0PiU0PjVEWVNSuMMiPJSjniU0ONMyTkVUXiVETgUkONMyOOMyPiVETiVETjU0iNMyWNMySPNSeONCSNMyXhU0PhWEmNMyWMMSWMMiO6QzTdUUGVNSYyLy8kICQfHBwjHx8eHR4mHR0kFx0iHR8gHR0gHB4hHR4gHB0hHB4hHR4kHx8gHyAgHR4hHR0gHB0hHB4hHB8iHx8gHR0gHR0gHR0gHB4hHR8gHR0gHR4kHh4iHiElJSUgHR0hHR0pGiMgHB4gHB0hHR4hHR0hHB4iHh4hHB0hHR4jHSAhHB0hHh4hHh6MMyN/LSB0KB9jIBpeHxleHxlmIhu/RTggHB1sJRyALSSxQDTZUEAgHB0gHR0hHB16Kx9iIRohHB4hHR2HLyIiHh5gHxkgHB0iHR6FLyG7RDUhHR0hHR6fOCzWTz8hHB7KSTupPS4gHR0bGxvfUkLGSTqdOCkgHR2ONCUAAAAAAAAAAAAAAAAAAAAAAAAAAAAAAAAAAAAAAAAAAAAAAAAAAAAAAAAAAAAAAAAAAAAAAAAAAAAAAAAAAAAAAAAAAAAAAAAAAAAAAAAAAAAAAAAAAAAAAAAAAAAAAAAAAAAAAADKSjrJSjoAAAAAAAAAAAAAAAAAAADjWkvocGPtiX/tpJvyrKXzsKnuq6TgmpHJe3KtWk7lZFbqfHDvlYvyr6jUi4G5aV2fRDbzr6iyVkrbkojvm5KXPzC0Y1fkXk+qPS7od2viVESOMyTRTT2OMyXiVESMMiPhU0MgHB1eHxm2QjKuPi+iOyyWNifeUUHWTj/OSzzBRjerPS6fOSrKSToAAADysKn///+TU40gAAAA2nRSTlMAATczWdbXWv3TVPshI0BI+UL1lZgdElGQRkfJxN6fYhj9wMSdPuepZuC+bi4opuowbu6yeLnxa9LMBBwnMSQYEFig1/j0vH8fN47C0Jl0SpWwuLQ+poQpLBTMiQjG/ZJx8Uz7ZFDIVVz4zr/P8PjHyq7Av8Xs5N3qxdereOJD3+5H2MVnYL3ibNXAnA781MRP+y93mK/FtJxmKd9Oi6S9g0HQkPbrfKs01eVtSF6g8tn7WTrZz6d1VHPL8dLDydj518PAzuHDwenAxtzlss7WxrrJzL5+gsRLjjLsQ9YAAAABYktHROu/3Sa4AAAAB3RJTUUH4gkMFB0jlrrbIgAAEiRJREFUeNrtnfljlMUdh/dVEaxIES+UQ/FGPFFQN9fmhiRACOFIWDYESDDeeCypRAxeoEk9OAKEI+FsOAQDtaJtrb2srbb20trdaBXbWvwruu+87zsz77V5r903m3yen7Izs7Nvdp7MzDvzfSeBAAAAAAAAAAAAAAAAAAAAAAAAAAAAAAAAAAAAII0IZ50t+H0NIKMRzhkWi587HBoBp4gKxWLxODQCDpEUisVGxKERcISikCwRNAJ2YQpRieLx874HjYBVeIU4iaARsIpaIZVE0AhYQauQRiJoBPpDr5BOImgEkmGkkIFE0AiYYaxQLHZ+PA6NgCVGGitkIlFCowv8vmIw4BgVsydR/Pt+XzEYcEAi4BpIBFwDiYBrIBFwDSQCrjGVaDQkAhaBRMA1kAi4BhIB10Ai4JoLIRFwCyQCroFEwDWmEo2BREDmwosuHn5JsnwvJbr0srEXXe73bww85opxsfGJhp8w8UqzWDLPJLrqsrHDJsViV8evgUaDiYRCMSJR3FwkTyQaec61SoDk1Yki11zn928OPIIoxCQSuf4GnUiuJRp547WTubddTQrdBI0GA7JCaokkkabczEXbu5FIuOXGW2/TvO1quRg0yniEcbRVxxuIwInkVCLh9jt0AvESJTS61O9vAbhCiCWVSGTqnVPEw9CcSCScdde06SZvYxLFb/b7WwCusCCRLNLddiW621wgSDSosChRgnvsSnRvLCmQaNCQYRIFs7JzcvOCKfgixJqzU1Lz4CeDJArlFxQW9YkUl5Tman+P3GyRGdKrmWXlFSWzZmex/OCcyrlV80qrBeOa58s1F5UvWKjNXTTTkBpNsdzZlXNrywsW54d19QcJ8kdXlxYsqagqm+l3y3tIxkiUXSA1s0xkrroVyuX0BYmfc+bJL4rq5JYWltbLSYXLDGperqq5qlqVvbjPmOIZXKHgiiUso0B9aeEKKb2+gb+2vlqdrRmLe4kmTU2DRMHFEW0jRsq4sSdPSS0MBBq4ooXEoqxa7n3zg/3XzHcmjSYS9a1kZbIbk1QwR0kuCARWcn8Jxff53fhe4U6ipvsfePChhx+Z9uiY1EpUY9iSFSFagJNomarHqkhYVFOoetuqoJ2arUh0X7E2r5DrZpYxiWaqrm15dWBw4Fyi6fc/9uDDX8g8/ODjTzyZMonCJg1ZRUswiWZoGrQgICzRvG02V3Otcc0lbO7Uv0QNEX1mlA12TKLganWh5pDfze8N1iU6lxfoB489RQWiPKUWyTuJ1pi1Y75SgklUoCkSmZmva2DWFa0yq5kNNf1KVF1klFtIJ95MohZtoaV+N7832Jfo6YRAX5jCieSZRNVmzdhXq5MoqhtZGgt1b6PurTWtubB/ieZI+eGocfZcnURrouafktFYl2iCJNAzX/SLLJJnErEhp37ByuqGAm70UO708/rsUKevubhsZfWcOq7mRUoZs86qVe7PuLu3ijXlzezVOq1E9fpKcgODARsSPWtFICbSc8M8kmgR/cpLQiShgfU2yqhjT6JyXc210uCzljnwvPLxMxbXMbh+rlTKzqWDWbNoTbiFilgY1EhkQIPf7Z9miUbfM35asoGM55lHHng6FvNIohb6hx7WpigtGcjiGqa4LH/lAvVffe2K6mVcjxLV1hNVJjDP0zKLjS7lBVZHozz1rlQSImulhKVaw3mJlpfl5OZz0+vSwGDAukQSUx998fFHHjLX56EHH3vg/un9CWRLohJttxPIpY1QJqdwPVErGSKyuHGlr4w0eCl9Xa+tmd6vMRkLDK4kq5WZKg9EQZq0Si4UpDMf+eaRk2g5mUeF2Nxolt/t7wl2JSKMWP/EtAe0t2cPP/XIYz94epIVf+xJpDR+PVvBW61tak4ieda8gqXIo5dA2265/C5lOlPEtjDoLHyewZVUsTo3yEkNNGWOUor1TdK2CydRpfba1vjd/p7gSCKJMS+9PE2aJj2T0OfZJsv62J1Yh3Ialpatqn2epTRqG4FJpMx3Q2ySrNyLz6cpyipQjVjzmsalBjWX66+D85KuI7E6Q0qxDTRJqpeTKEe+NppQFRgMuJBIHt+es62PXYn0KDtlBhLRxmdjRracUqeTSE8SibLYPIvtm9E+MUrLsRUJ6eqYRFHlc1vNPyUTcS1RfIwjhdxJVKJuJl6iNqUMvX0vUpqOTooi5jUvMW9ebjCjnSLr70poOdbPrCavmUR0nlWhpCzxu/09IcMkyqvOb6mcW0tvq/UStShFaZtXKCn0viliWnMFrVknEbtx4wYhtlpZyUqyPpDMtZhEK3TX1uh3+3tCBkkUaqjTLT7rJaINRW/p6V87naxoJWpfpq9ZKxG3J1fP4pSYWQtYUbaESXZYmUR0VWguJPJDorwFjQbbnAYSvaC8Y55OB+OeqKbUsGaNREIJy+JCOFpoIrfiwzZ8iTVMIrprTwWHROmTSCgt7jMkiUR0yKCzFSOJhNkmNWskYrdcbFMswO95tLDEEvXFMIlylBKQKP0Shcv7TNBLRLsJvUSz9RIFq8xqVkuUy1RrzePSZxlJRPtA6R6fSUSDjCBR2iUS5qnbtyiaZGJtSyJhvqriSOtq44m1wFmcz2ewwBNOIrbBQsY4SDQQJKpkLVjctnJGmFtXdinRAlZza92cGoGrWSUR2w/TrDGXqX2RYBItFV9CouT8cP0r41/+8l9ffZ1KidjOQt+sdinJI4nWsZorw5qaeYm4waxZ/ZAH24/jNmzpvZd2TgSJVDz50nMvv3rvbWSn7LSY8M2///Plf7+1I5NViQR2902HDHoT7U6iWn3NFQYS8fG1mtgN1kVVskQ2sX5NfAmJDOWZ/Dpvw2ku//Q3/7Mqk1WJ2Hoea1dvJJppULORRPR9+r19FnrLDXMsFpI8OwSJGOsT8hjukp02KCzK9LU3ErEZEXu8IqptOkcSsfvzfH3NTKKFbDCLhjQXl23gIasjQsZISMR4xcyG0yZv+MobidiYQ3c92+nqoBKw4UiikmQ10+YVuCDrOdqLE6hgrTQtSOuQNlwgkf8S0b3zCH1Ig02IlX0xRxJFk9VMd+VbmEOR1mi0cNXifG5yze796fJRDk2SQs4gkf8SsT2JdiWJjXBF8k2VI4lYnGJYX3NEliLX4IGgSGOLokyp/oPZ4rY0/kIi/yVijajsGoS5AGp5nuRIIhZBqzzaEWZeKTu53CIVT/EsKUqJRerSmTXtnOT4OEjkv0QssELZKOeWCJVWcCQRWzsoNai5UApD4rRSs1yajdMZ03I59o2NZnIAOCTyXyLuqTNp/nuf6hAPacPVkURsPiPvh61UDV0kjLq9zxQpTpEFg1SRjidM1YzIzkAi/yViQa19zQ2h4MwCdeBGMWkZRxJx/U50TlhY1KauuUgcPmeYSyTNpIKsPytZJASr2UvlSQ5I5L9Er6lbVteUlY4lUj1EHdGHhLRZkYidHJOgnrs8eloDJPJfomC0LxmRBscSCYVJayZLkP1LZPacNV3AhET+S8QHN9O/8nXKfLdIaitne2f5+ppb1yn3bEVktsUkipasaasrWFWuWxgwPp6GhYZAogEgkaD7U29eqLR/vfzsssNQEO05NH2tOcrwWSydxyBJtLpsLVtgzGpoa+YlCuSt7tNRxq4fEg0AiQLhEnUDlYuPMJOYwmZl6cihROG56pqXiM1MZvKt8rmLNYkuqS1He0XC2nmRviK6zp2njY8s3sAVNpBoyAbq+yeROsQ6KmkiJHqR1fRklnY6o6XbWzRoka4C0uMYmlnNLdzCZfML5KZdSPgZpe29ojTP8JoWlnFRIcIG1bR8ierEGBosEKE10R5wqD0B66NEiQ6hpURs7eLVdWuVv39hwSyuee+rKiEspg+3Zq+RUtbQk4bClVJKFX+CbGhpVSupuXIdrbm0LStgk3Z6fGz9LO3pwqXSx5aw7im3oIowP8fepwxQMkQikWAoVUeVe1NzzcyGpSvWZQ/B89QzSCIwUPFAojgkGuJAIuAaSARcA4mAayARcA0kAq6BRMA1kAi4BhIB10Ai4JrMkWjjps1bOjq2btve6fd3BjRkiETBTTvOUDp26vLDO3ft7tq6rXvPENz+9J/MkGjj3jMqtqn/43No334l58BBaJR2MkKizgNnNPyIz+5RZR/KC4D0kgkShQ5LnczmI0f3vHFM6nS2s+yNx9WCvVkTAGklEyTaJQ1hshu5ZGg7TEetIHm9f19PTajnGCl5zO8vdaiRARKFetVm5JG+6ITycrv46vhJ6cUmYtFGv7/VIYZ1iX48ucmORKe/+dYjiYglB0IsYZ9Kqr2q0W2r+GqX39/qEMPOmY3nr39r/MuvDpueXCKrpzZalugnZDDjEjrJzEd+ka0e3I7yeSA9ODk99sm3yOmfTWqJxPNj7RxGbFmiQ6IXb3MJQXF865Uf6zihVkzKCwdAGnFxjvWI9QmZXrx3sk15bEtEbuBV64vkbi0k/dwt/nxEk5cdAGnE/Yn6p23rY1MiMo8+xaeceOedTZtC0s+bVbPsQOBdzKzTTgZIRDY83jHL3bU3wUlNaaw3phX3EsVTLRHpWzos/j5kTrRfsFgaeIIHEln/L+bOJCID1pmT1n4fcue21+9vdYjhgUTO/hm1dYl2EokO51r6fbZp9kRAGvBAotdTLFFQigI5sNPCIJUtjmYHcIefXjJgOAuckndW957qT6M94nJA784ASCuZIJG8A5tgx64ekyKhnp6TJ46RlcZTAZBe3Es0ItXDWeIiD/bSQI8d3YaTozfk7N7dWCNKO64k+unPfv7eL95//5e/+vVvbkulRIHAyXe5gKEug/Fqu5zXHfL7Gx2COJRoxG8/+N17H37H8eF7v//DR3Y6JXuB+sLRLaw3OtOhC9Y/omT1bu3pvzbgKfYlkrqf7wyx0ynZfmQobxOLtD6u7YxOdnfvOka2as/sf8PvL3WoYUci0v18/F2/fCx2Sv1Ot508d9bZfVi2aP8ew/wtZ7Rb/iD12Pj3nX/80/v9C0T55M6PvJcoEAgfkTXaYbwYRALWevFoWlqxEdkYi03/818sifTJB3+dGo//LRUSJTTaJ1lkvCUb3oEo67RjSyKR/kSSBBJJkUSBwMEzSbZkyb3+cTx8lk5sS5RMpIRA17M3pEwioYOMWSHDzDBC9dOOI4kMRHr/k78rPZDHEuX1JFAHCJ1IJsphXSAkSDGOJeJEEgUao3+DRxJt1z+/ESISHTUuT7op3OWnE1cSSSIZCeShRKTb2axO2097m86DCVT9zhZNvCxIOa4lijWZvcEjiUg40W51Gond76G5XXxeV5JeCqSEgS/RRp0mUgysFEjdQ9aM+MxDmFinm4EvUVg05rgqkmgPWbMmt/HkGete7giH9l6aB9LEwJdI6lpU49MW7nQZsr1/kOWdshPWDzzBokSjr/n0brsS3f3ZuCYvJCKPJ77L9S1S0LU8dyYrj4fZHkiH5mFGkHosSDTmpk+vS4wmo+xKdHli8jLqs2lNbiXqlM6LoZ4cJecRvSm/Du1XPUf9Nlmwbvf7ax1aCOOSSjT1TiKQiBOJRIJn3TVtelKJzrsk+TXuJhYd2k5mPhuPSXFFdBdf2gTZQqbZoV1JttVAyhAuG2ci0dQ7p5zNzWcvdCgR+ZDb77j1NhOJzh3eX/h9nnKc3vE39yo/sllQsEsKRuvavK1DOjOtC88uph3hsmE6ia6/YcrNmqZwIxHhlhtvnayTqH+FEnQqUUQ0fJHva0Jd6swuPDHkB1JvpEg0YeKVFxgUci2RyMhzrh0mv+8f4kdZUShB3u5eXpMO9TJQsHs/yzuO42N94/NxRKIJE4ebTVA8kUjkqnPGDpskSjThSuvjTmd3h+RR7959+iDq9iMdB6Qx7W2c5eAnV1x08fBkM1zPJBK59POxN9hQiBDM6zx5stN0rApnd9ZgMjTA8VQiMDS5AhIBt0Ai4BpIBFwDiYBrIBFwDSQCroFEwDWQCLgGEgHXQCLgms8hEXALJAKugUTANZAIuGbUJHsSjT7b7ysGA49bbp1kXaLRF1/i/hPBIMRQoyYoBGxhoFETFAI20WnUBIWAbTQaqSU6HwoBS6g0aoJCwBGcRk1QCDiEatREFbrAfa1giCFrJEl0/kQoBJxANGoaAYWAGxIaNY2AQsAdI8f+E9NpAAAAAAAAAAAAAAAAAAAAAAAAAAAAAAAAAAAAAJnB/wEMRTVxtD/WcQAAACV0RVh0ZGF0ZTpjcmVhdGUAMjAxOC0wOS0xMlQyMDoyOTozNSswMDowMITfdNAAAAAldEVYdGRhdGU6bW9kaWZ5ADIwMTgtMDktMTJUMjA6Mjk6MzUrMDA6MDD1gsxsAAAAAElFTkSuQmCC;" parent="_cq7_WS7stlt5bRTaMeV-15" vertex="1">
          <mxGeometry width="174" height="60" as="geometry" />
        </mxCell>
        <mxCell id="_cq7_WS7stlt5bRTaMeV-62" style="edgeStyle=orthogonalEdgeStyle;rounded=0;orthogonalLoop=1;jettySize=auto;html=1;exitX=0.5;exitY=1;exitDx=0;exitDy=0;exitPerimeter=0;entryX=0.5;entryY=0;entryDx=0;entryDy=0;" parent="1" source="_cq7_WS7stlt5bRTaMeV-18" target="_cq7_WS7stlt5bRTaMeV-60" edge="1">
          <mxGeometry relative="1" as="geometry">
            <Array as="points">
              <mxPoint x="260" y="530" />
              <mxPoint x="340" y="530" />
              <mxPoint x="340" y="510" />
              <mxPoint x="460" y="510" />
            </Array>
          </mxGeometry>
        </mxCell>
        <mxCell id="_cq7_WS7stlt5bRTaMeV-18" value="" style="strokeWidth=2;html=1;shape=mxgraph.flowchart.database;whiteSpace=wrap;fillColor=default;" parent="1" vertex="1">
          <mxGeometry x="240" y="480" width="40" height="40" as="geometry" />
        </mxCell>
        <mxCell id="_cq7_WS7stlt5bRTaMeV-64" style="edgeStyle=orthogonalEdgeStyle;rounded=0;orthogonalLoop=1;jettySize=auto;html=1;exitX=0.5;exitY=1;exitDx=0;exitDy=0;exitPerimeter=0;entryX=0.5;entryY=0;entryDx=0;entryDy=0;" parent="1" source="_cq7_WS7stlt5bRTaMeV-19" target="_cq7_WS7stlt5bRTaMeV-61" edge="1">
          <mxGeometry relative="1" as="geometry">
            <Array as="points">
              <mxPoint x="260" y="610" />
              <mxPoint x="340" y="610" />
              <mxPoint x="340" y="590" />
              <mxPoint x="460" y="590" />
            </Array>
          </mxGeometry>
        </mxCell>
        <mxCell id="pxq9HLCey6L4es0OluDU-1" style="edgeStyle=orthogonalEdgeStyle;rounded=0;orthogonalLoop=1;jettySize=auto;html=1;exitX=0.5;exitY=1;exitDx=0;exitDy=0;exitPerimeter=0;entryX=0.5;entryY=0;entryDx=0;entryDy=0;" edge="1" parent="1" source="_cq7_WS7stlt5bRTaMeV-19" target="_cq7_WS7stlt5bRTaMeV-75">
          <mxGeometry relative="1" as="geometry">
            <Array as="points">
              <mxPoint x="260" y="610" />
              <mxPoint x="140" y="610" />
            </Array>
          </mxGeometry>
        </mxCell>
        <mxCell id="_cq7_WS7stlt5bRTaMeV-19" value="" style="strokeWidth=2;html=1;shape=mxgraph.flowchart.database;whiteSpace=wrap;fillColor=default;" parent="1" vertex="1">
          <mxGeometry x="240" y="560" width="40" height="40" as="geometry" />
        </mxCell>
        <mxCell id="_cq7_WS7stlt5bRTaMeV-74" style="edgeStyle=orthogonalEdgeStyle;rounded=0;orthogonalLoop=1;jettySize=auto;html=1;exitX=0.5;exitY=1;exitDx=0;exitDy=0;exitPerimeter=0;" parent="1" source="_cq7_WS7stlt5bRTaMeV-20" edge="1">
          <mxGeometry relative="1" as="geometry">
            <mxPoint x="260" y="840" as="targetPoint" />
          </mxGeometry>
        </mxCell>
        <mxCell id="_cq7_WS7stlt5bRTaMeV-20" value="" style="strokeWidth=2;html=1;shape=mxgraph.flowchart.database;whiteSpace=wrap;fillColor=default;" parent="1" vertex="1">
          <mxGeometry x="240" y="640" width="40" height="40" as="geometry" />
        </mxCell>
        <mxCell id="_cq7_WS7stlt5bRTaMeV-21" value="Bronze" style="text;html=1;strokeColor=none;fillColor=none;align=center;verticalAlign=middle;whiteSpace=wrap;rounded=0;dashed=1;" parent="1" vertex="1">
          <mxGeometry x="80" y="485" width="60" height="30" as="geometry" />
        </mxCell>
        <mxCell id="_cq7_WS7stlt5bRTaMeV-22" value="Silver" style="text;html=1;strokeColor=none;fillColor=none;align=center;verticalAlign=middle;whiteSpace=wrap;rounded=0;dashed=1;" parent="1" vertex="1">
          <mxGeometry x="80" y="565" width="60" height="30" as="geometry" />
        </mxCell>
        <mxCell id="_cq7_WS7stlt5bRTaMeV-23" value="Gold" style="text;html=1;strokeColor=none;fillColor=none;align=center;verticalAlign=middle;whiteSpace=wrap;rounded=0;dashed=1;" parent="1" vertex="1">
          <mxGeometry x="80" y="645" width="60" height="30" as="geometry" />
        </mxCell>
        <mxCell id="_cq7_WS7stlt5bRTaMeV-48" style="edgeStyle=orthogonalEdgeStyle;rounded=0;orthogonalLoop=1;jettySize=auto;html=1;exitX=0.5;exitY=1;exitDx=0;exitDy=0;exitPerimeter=0;entryX=0.75;entryY=0;entryDx=0;entryDy=0;" parent="1" source="_cq7_WS7stlt5bRTaMeV-25" target="_cq7_WS7stlt5bRTaMeV-35" edge="1">
          <mxGeometry relative="1" as="geometry" />
        </mxCell>
        <mxCell id="_cq7_WS7stlt5bRTaMeV-25" value="&lt;br&gt;&lt;br&gt;Weather Data for Vessel Positions" style="strokeWidth=2;html=1;shape=mxgraph.flowchart.database;whiteSpace=wrap;" parent="1" vertex="1">
          <mxGeometry x="600" y="100" width="90" height="120" as="geometry" />
        </mxCell>
        <mxCell id="_cq7_WS7stlt5bRTaMeV-51" style="edgeStyle=orthogonalEdgeStyle;rounded=0;orthogonalLoop=1;jettySize=auto;html=1;exitX=0.5;exitY=1;exitDx=0;exitDy=0;exitPerimeter=0;entryX=0.25;entryY=0;entryDx=0;entryDy=0;" parent="1" source="_cq7_WS7stlt5bRTaMeV-29" target="_cq7_WS7stlt5bRTaMeV-35" edge="1">
          <mxGeometry relative="1" as="geometry">
            <Array as="points">
              <mxPoint x="435" y="240" />
              <mxPoint x="460" y="240" />
              <mxPoint x="460" y="280" />
              <mxPoint x="630" y="280" />
            </Array>
          </mxGeometry>
        </mxCell>
        <mxCell id="_cq7_WS7stlt5bRTaMeV-53" style="edgeStyle=orthogonalEdgeStyle;rounded=0;orthogonalLoop=1;jettySize=auto;html=1;exitX=0.5;exitY=1;exitDx=0;exitDy=0;exitPerimeter=0;entryX=0.5;entryY=0;entryDx=0;entryDy=0;" parent="1" source="_cq7_WS7stlt5bRTaMeV-29" target="_cq7_WS7stlt5bRTaMeV-34" edge="1">
          <mxGeometry relative="1" as="geometry" />
        </mxCell>
        <mxCell id="_cq7_WS7stlt5bRTaMeV-29" value="&lt;br&gt;&lt;br&gt;Vessel Data Positions" style="strokeWidth=2;html=1;shape=mxgraph.flowchart.database;whiteSpace=wrap;" parent="1" vertex="1">
          <mxGeometry x="390" y="110" width="90" height="120" as="geometry" />
        </mxCell>
        <mxCell id="_cq7_WS7stlt5bRTaMeV-37" style="edgeStyle=orthogonalEdgeStyle;rounded=0;orthogonalLoop=1;jettySize=auto;html=1;exitX=0.5;exitY=1;exitDx=0;exitDy=0;entryX=0.5;entryY=0;entryDx=0;entryDy=0;entryPerimeter=0;" parent="1" source="_cq7_WS7stlt5bRTaMeV-34" target="_cq7_WS7stlt5bRTaMeV-18" edge="1">
          <mxGeometry relative="1" as="geometry">
            <Array as="points">
              <mxPoint x="430" y="370" />
              <mxPoint x="430" y="380" />
              <mxPoint x="260" y="380" />
            </Array>
          </mxGeometry>
        </mxCell>
        <mxCell id="_cq7_WS7stlt5bRTaMeV-34" value="Kafka Ingester" style="rounded=0;whiteSpace=wrap;html=1;fillColor=default;" parent="1" vertex="1">
          <mxGeometry x="375" y="310" width="120" height="60" as="geometry" />
        </mxCell>
        <mxCell id="_cq7_WS7stlt5bRTaMeV-42" style="edgeStyle=orthogonalEdgeStyle;rounded=0;orthogonalLoop=1;jettySize=auto;html=1;exitX=0.5;exitY=1;exitDx=0;exitDy=0;entryX=0.5;entryY=0;entryDx=0;entryDy=0;entryPerimeter=0;" parent="1" source="_cq7_WS7stlt5bRTaMeV-35" target="_cq7_WS7stlt5bRTaMeV-18" edge="1">
          <mxGeometry relative="1" as="geometry">
            <Array as="points">
              <mxPoint x="660" y="380" />
              <mxPoint x="260" y="380" />
            </Array>
          </mxGeometry>
        </mxCell>
        <mxCell id="_cq7_WS7stlt5bRTaMeV-35" value="Weather Data Source" style="rounded=0;whiteSpace=wrap;html=1;fillColor=default;" parent="1" vertex="1">
          <mxGeometry x="600" y="310" width="120" height="60" as="geometry" />
        </mxCell>
        <mxCell id="_cq7_WS7stlt5bRTaMeV-38" value="" style="shape=image;verticalLabelPosition=bottom;labelBackgroundColor=default;verticalAlign=top;aspect=fixed;imageAspect=0;image=data:image/png,iVBORw0KGgoAAAANSUhEUgAAAJMAAACTCAMAAAC9O9snAAAAYFBMVEX///8AAADs7Oz29vZRUVGOjo7p6em+vr4qKiowMDAPDw/W1tb5+fnv7++jo6Pf3989PT2zs7PGxsZoaGg1NTViYmKVlZWCgoIlJSVvb29JSUl8fHxXV1fPz89EREQZGRl+Lbw0AAAFb0lEQVR4nO2abZujKgyGUarWKiK+1tHW//8vlwTwpaPd2Z09o+e68nwZxoLeDSGEWMZIJBKJRCKRSCQSiUQikUgkEolEIpH+t0qTIL9+BEl6NMgsWXpGpTwaxenhzSqOhjES9wXTeA5L1cCSt1lfQaM+GgcU3jTJJdQtmQPUGQyVAYhpSpjF5lgcVKM5WtseYO0dSmPUao7MtjvdHg6lMQI7dbZ9Fjsp8KcQm9FtYbMjxUcIBYluPaDl+fZ6mNXD0CbHQOHC84b+iX97SxrYIHo5hIq73Q5jpzFTGs+XokOg6hnJREx+WWB6jyOg0gy3Fe/ac3Ohwa2vbnqM7LHrlyilEJrrflKvC66TGy4l08b1mZTWFZOuqp6Bvm2h+/O/puLgVINzb4YkkCKIcpksBG4m24LxexexQP+tm9LXm+SQjoGZZeOfnmD8uVgyf6FkEaVYsQB5LkKWY+J5z3gn+zQvWaDAIxNZ8lqG02DDpD3g9q+YFlsgTqML7Y6piUo/vfZhozpZapC0zrKOPxU6HsRdr/rnTMDxtO0I4gFfMYVD23e8Y/7QdoFqhRR67kpecuxWGRsr/7tMCna6XNl8/Dd2KvR0tTJgkW63Iitroffwll06fZ2F12nsd5im+Oh5gUBCaCr8TFwXBpx8/I2AKf42k/+xiEUfeq0HmAzfwcn5sLnu/mum0FtLja4V94PhdF1/ismG7Gemmtzb1DjteD/F1LgZ0yoqi1E/5u3mPm8tP8SEm+3FDcSE3Lvq9ZdmDm9xZvgKk/99Jgg/NqMDLSJ4qpogyFanmJnJ1zKjeGE2wTT0fQ6nfGAyn85MfO4fRkpFenULfWGnFJB562wXtpJ2u+uCqa/yPA5wPDrhvRePax7rFFWBpW95no+LOB4OVV6Z/bPHJKhqWBPn953UrJ0i0fz/7rHTMfVwXzhziW7yOvDLwIY21MzkA/cNBoIRjTpw2B2m/sVFmi8wTUjMIN3dk4IpKVgyhRj/YKWEZmVfXTHg39kJkfAkgUZ5KimL0jEVnQ5vY9u2HTdMQoA7jOij2KsvQqnyd0x/7k8zkgADDMZRG8v0GgvuD5w4fLqcRjL28YZpa92Zudxedzf8hmrqfHNjqx0m6G+jLszBxXaX4z7TVny6Z3w/PgGHnezMYkxfboMJFFvu2lvUt/p9pu04PhS7cVyrss9Y+WKyz2R9Q1yWU9K8YfrCfjdBuZzmI52+6sQEJt5hssYE95umGtfH7tHxU17gjLWdFywesqx+vLOTnbG1nbJ3TJ/zJxubd/IndLQpFPzWn0L0AvSNTX9KtzdE3kxIJs/E1bebZ2KUSWy30Z3fnttMN+HDCvsQ1q4ujQ7v5iYqyNqdI+A6H8dYaD/5nI9zMGMM2y4YuH4fn3Qch1nFW6CXNLMJNdNDFYVod/biPzm3YO06d+yXx1Rg32YyvMBi4rh2qch4WsJ61jYiC9mm3p/v0hWTCbRQgJkjxjsmsy1qXwjjdf+EdawL2JeYHgvH3joHo2eAn5slgGodk3aU68yEZ3NcceDn8ua6DwMyRZF6JMG2Q73UC2DoRr2guZssSB/G46rCHcOsUa+XyVhdYX78Zxzb4MFr3QvvKauqigfI5Ew4GQMWXPEGmY6Lm9XvT3UVnLzPdRUuhEinlsA1KhKVReDwvhA42n2wakLLx6H+Q6nCxzvghZ1sc1F/qmz9aZ4T75D607pOZ/zt6DqdiZiv9UwXRw+pZ4qXuq9bmP6Bdd8z1scDb/0e4Qwvy17ft1ze9v4ZgZ2W76XOYKfX93fB++4/InnC95ymUHuu98HMP+F78zP+vuCUv8M45e9VSCQSiUQikUgkEolEIpFIJBKJRCKRzq1fwk5IdpPzq6sAAAAASUVORK5CYII=;" parent="1" vertex="1">
          <mxGeometry x="365" y="40" width="60" height="60" as="geometry" />
        </mxCell>
        <mxCell id="_cq7_WS7stlt5bRTaMeV-47" value="Scheduled Jobs" style="text;html=1;strokeColor=none;fillColor=none;align=center;verticalAlign=middle;whiteSpace=wrap;rounded=0;dashed=1;" parent="1" vertex="1">
          <mxGeometry x="18.54" y="350" width="60" height="30" as="geometry" />
        </mxCell>
        <mxCell id="_cq7_WS7stlt5bRTaMeV-52" value="" style="rounded=0;whiteSpace=wrap;html=1;dashed=1;fillColor=none;strokeWidth=0.5;" parent="1" vertex="1">
          <mxGeometry x="300" y="270" width="510" height="120" as="geometry" />
        </mxCell>
        <mxCell id="_cq7_WS7stlt5bRTaMeV-54" value="Streaming Jobs" style="text;html=1;strokeColor=none;fillColor=none;align=center;verticalAlign=middle;whiteSpace=wrap;rounded=0;dashed=1;" parent="1" vertex="1">
          <mxGeometry x="740" y="350" width="60" height="30" as="geometry" />
        </mxCell>
        <mxCell id="_cq7_WS7stlt5bRTaMeV-59" value="" style="group" parent="1" vertex="1" connectable="0">
          <mxGeometry x="256.54" y="295" width="73.46000000000004" height="70" as="geometry" />
        </mxCell>
        <mxCell id="_cq7_WS7stlt5bRTaMeV-58" value="" style="rounded=0;whiteSpace=wrap;html=1;dashed=1;strokeWidth=1;strokeColor=none;" parent="_cq7_WS7stlt5bRTaMeV-59" vertex="1">
          <mxGeometry width="69.23" height="70" as="geometry" />
        </mxCell>
        <mxCell id="_cq7_WS7stlt5bRTaMeV-56" value="" style="shape=image;verticalLabelPosition=bottom;labelBackgroundColor=default;verticalAlign=top;aspect=fixed;imageAspect=0;image=data:image/png,iVBORw0KGgoAAAANSUhEUgAAAuAAAAKoBAMAAADE+1c7AAAAD1BMVEWYo+pPhPTV3PhAUtc4fvrYrdIhAAAAA3RSTlNG7wBXh9qPAAAWx0lEQVR42u3dbXqqPBAG4EQ2gOICgn0XoHUFXJf7X9N7atFCvsjHECbyzL/T06rcjpMhCSguiKIhQABwgCMADnAEwAGOADjAAY4AOMARAAc4AuAABzgC4ABHABzgCIADHOAIgAMcAXCAIwAOcIAjAA5wBMABjgA4wAGOADjAEQAHOALgAAc4AuAARwAc4AiAAxzgCIADHAFwgCMADnCAIwAOcATAAY4AOMABjgA4wBEABzgC4AAHOALgAEcAHOAIgAMc4AiAAxwBcIAjAA5wgIMA4ABH7BZcArys9wDwot5nHVwBfMXozw8dvG8Bvlqo88MEv50Avpb38WEBv98OAF/P2wJem3g14PLhAK9MXFTlbQW/twBfoSH0gFclXgd4P3o7wGsSrwJcvbxd4LcW4OQNig+8ooFTVOXtBK9HvAJw+QgAr0acP7g8B4HfjwCn9/aBV9KqcAfvZ95e8DrEmYOrubcfvApx3uDTBiUAvIaBkze47r0AXoM4a3D5iASvQJwzuDxHg/MXF1V5L4OzHzj5gvcW7wBw7uJswZXNOwScuThXcKMhDAfnLc4V3O4dBs564GQKLh8Z4KzFeYLLcxY4Z3FRlXcoOOO5Wo7gyukdDM534BRVeYeDsxXnB+5oCGPBuYrzA/d5x4AzHTjZgcsHEThTcW7g8kwGzlNcVOUdB85SnBe4WvCOBOc4cIqqvGPBGYpzAvc2hGng/MQ5gS97x4PfTwBPawhTwbkNnHzA5XkVcG7ioirvFHBm4lzAVZB3Evj9CvBU7zRwVq0KD/CAhjAHnJM4D/BQ71RwRuIswOVjbXA+AycHcHleHZyPOAPwPtw7HZyN+PbgKsI7A5yLuKjKOwecycC5NXhwQ5gPzkN8a/A47zxwFuIbg8tHSXAOc7XbgstzWXAGA+em4H2sdy44A/EtwVW0dzb49uKiKu988M3narcDj2wIqcC3blW2A0/xpgDfWHwzcPnYCnxb8a3A5Xk78Pthf+B9mjcR+JatyjbgKtGbCHxLcVGVNxX4huJbgCc1hLTg2w2cW4Cne9OBbya+Abh8cADfSlxU5U0JvtFcbXHw/swFfJuBszS4ejy4gG8jXhhcnRmBbyJeFjyjIVwDfIu52rLgud7U4Bu0KkXB5YMbeHlxUZU3PXhx8YLg/ZkjeOm52nLg6vFgCV64VSkGrs5MwQuLi6q8VwG/3z4RXD74ghdtx0VV3iuBl2xVRFXea4EXFC8C3p+5g5ebqy0D/mAPXqxVqQy8XQu8mHgR8P/W8iYEvx+Q4cveF9UBfD1w2x18FcBXKymDlaQH+EoZPjhEJMBXAR+cnbIE+BolxXMu2ACcPsO9594dwKnB/XMdJM0hSkrAgEnZHCLDw71JxAEe4U3RjqOkLDeEpM0hMjxswCRrDgEe553dHKKkRHrnNofI8OABk0Yc4LHemc0hSkq0d15ziAwPbQiJmkOAxwyYBM0hSsojaXdOA/DUDE/8EtIO4GngQ6JAanO495IyJAMogPclvVPF9w0+ZG2ulCgpRRqUPPFdZ3j2du0G4AUawrzmcMcl5Uhw7PHN4X4zfCA59Gjx3YIPREeuUFIKNIQZc7V7zXDC68kkwIt6R4rvs6QcaZ+4QYav3xCmtip7BB/IDzpCfIclZVjhmBUyvEBDmCS+P/CVbjAgUVIcsdb9BSQyvCx4YHMIcIBvV1KU+Anf/4kDwAkzvPeQNIs3CgM4JbhavqMPSgoleLN8exlkOCH4eO7eYtAsBN4H3D8JJYUQPCDBkeGE4CEJDnBC8C7kVqYoKWTgfZAVMpwMvAm6Vy/AqcBVGBVKChX48lk9MpwSPOCsHuCU4IEJjpJCBB6a4MhwIvDQBAc4DXjItBVKCiF40Fk9MpwOPDjBAU4CHp7gKCkk4EHTVshwMnAVoQRwAvAmPMFRUgjAYxIcGU4AHnzSA3AS8OCzepQUGvCoBEeGZ4PHJTjAs8Fl3PeOoqTkgoef1SPDKcAjzuoBTgEemeAoKZngsQmODM8Eb2K/VBfgWeAq2gclJQs8ZtoKGZ4PHp/gAM8Cj09wlJQc8MizemR4LnjctBXAc8HHzSgngBcqKX1CgiPDM8C7+CET4Bng4yUmtwPAy5SU1x2sUMPLZPj7XptXgBcBf8vF1RSUlERw8aeDE58SGT6JG8DLgmPyqkRJeab2eI+2FuBlMrwdT+5vAC8C/q89aaKHTZSUdPD2PUF7BXiBDH8Wkg6r9sXAn78iY2sKSkoq+G8Zia4pyPBE8FcVaSKFAJ4I3s7zHZs515+eHSOyFUeG54JH1hSAE10B0QK8UEmJrCnI8GzwHlexlQWPa8VRUsgujD0AvEyGx9UUgBPc3CBm2ERJIbubBG7fUSzDY1pxgNPdEegG8EIlJfBO1shwMvCIVhzgJLfRC2/FUVIIbxQZ0oojw2nuPRu8OR/gpDf7PQC8TEnB7axLZ3hwKw5wIvDQVhwlhfY7IFqAF8pwfMtJafDAVlyipFB9U1VgK94gw0m/GmyxFVcdwGnAQ1vxEHGUlADw4NN7iQyn/ALTACwJcBLw4JW25aKCkhICHn6HoEVxZHgQePhKmwI4BXjEjWglSgoFeMRdxyQynAA84r56/jIO8DDwmNtgecVRUgLBY+5uLZHh+eBR9+qUAA8D/6kFx4MPMeyCH09RQUlZJdzi+8vwtsgBK4AXFpcoKTzEd5jhj6HIQTvK+B7BNxXfY0kpJS6R4e84blbGdwpeZuBUR5SUwuIdMpxcXLZR4vsFJxo41dn7QBIlhVZcnRceSCLDKcV/vP3VSS8qewYnaA7l8nigie+4pBAMnDLksyKR4VTiMqw6SYD/QeWIy3PYO6calBSKgVOdQz8r0zK+8wzPEJ97P4ZTmPjuwVPFNe/gMr73kpI8cMq4JlMiw/PEZeTjvIsKwJPEZXTL8xJHSUlpDuU5fjiQHTI8deBU55THkQBPFHd6LxSnI0pKkrjHO2DgRIZHD5wy+Y37EQd4rLjM+KhIlJRocZn1MBIZHjgb8j6QvDdOdQCPGji9A2ZQGUdJiREP8S61ke4DMnyRKsy71Ea6TwBfGDglfY+575KyQCXDPyktMjxfXK5z4rp3cGdzKKg7HpQUL1XogMmkjNeT4Q7xWO+txWsCf1iuRY733rioVFRSrMkp1ziNQoY7xeUKTT3A3VZyhab+E8ATCm1Qc5j8uBsWlSLgl55Q/EDxPm4nXgbctX0hyyrrc3P8cPDkautuDjPrVPvh4JTiLcUDbjWNVQxcHWnFJeFg8JHgxOKSdPj9SHDS5rA9k5WmzwWnbA7Xmin4LHDK5nDNCd/PAadsVWoVLwvOTrz9dHDKVmWdCfYPA+cl/vk1nLY5rLIRLw7OpzkcxGUX4Gyaw20mU7Z4l+WOvTcBZyHeHnYEzqBVOW7kvQ349uIfv8TGrDn8+EVkZs3hIC67A9+0Ofz4jUDMWpVNd3Nu+OGSO2sINwffqFU5buq9Jfg2rcouroBgJL6Pa3z4tCqDuOwavLj4Tq7TZNOqbO+9OXhR8fYA8JLN4ZGB9/bg5VoVDveS4ABeSpyHNwfwMq3K0F4AXlKciTcP8AKtChdvJuCri3NoCFmBr9wcHtl4cwFft1UZ+HizAV9TnJM3H/D1WpWhvQC8pDgrb07gK7UqvLxZga8izqchZAi+QnM4MPPmBU7fqrDzZgZOLc7Pmxs4basytBeAlxw4GXrzAycU5+jNEJxMnFtDyBacqDkcWHpzBKdpVZh6swSnEB/EBeAFm8OhvQC85MDJ1psreKY4X2+24Ep+XEPIGzynORwYe/MFr/LWyVWDp4oP4gLwgs3h0F4AXrJVYe7NGzxBnLs3c/DoVoVzQ1gDeKz4wN6bO3hcq1KBN3vwGPFBXABesDkc2gvAS7YqVXjXAB4oXod3FeBBrQr/hrAe8JCBc6jEuw7wZfFqvCsBXxIfxAXgBZvDob0AvGSrUpF3PeAe8Zq8KwJ3NoeMrnr9KHDXwDlU5V0TuF28Mu+qwC/iXHNDWCG4pTlsLwAv2apU510buCZen3d14LPmsK6GsE7waasyVOhdH/ifeJXeFYK/msNBXABesjlsLwAv2apU6l0n+D/xWpYwPwRcyVq9KwWvOAAOcIAjAA5wBMABjgA4wAGOADjAEQAHOALgAAc4AuAARwAc4AiAAxzgCIADHAFwgCMADnCAIwAOcATAAY4AOMABjgA4wBEABzgC4AAHOALgAEcAHOAIgAMc4AiAAxwBcIAjAA5wgCMADnAEwAGOADjAAY4AOMARAAc4AuAABzgC4ABHABzgCIADHOAIgAMcAXCAIwBeKJQQ4gDwYjkru/v9fhOCFFwdf+L0QVl5tMY7UeXsX9M/amc/VfL+ivZACN4/H/L6OeD93Rpvs2b2r9e7YCCoZvLH1wMd+O/7eNs3uOqeiWzP76fPgQx8fCP3DS4NVKn9+XKOh4J32uvZJXhjJHin/31LBP565NOewZWRc435AIIIfHy47z2DN/qQqSwPsFTGRdzLu+4Y/PdTfjIT/F8L/i+6sKISCP4zOBw/qk15gl+FHh5wY8gc62wrZg3LjQS8GcHvnwV+WmjLDt6eUGqnO6Kjy/Cfhzp0n9SmxIMbFbrRfyIChMLAf97d21P9tFtwc8g0E1ouj3KB4M/a1HxSmxILbvaEytKUNIsZKYJf3fX5Gq57BZfGgNhb2jZ1PJCAy2du95/UpkSCW+qHdXpr0TMMvHm+OPVJbUokuDmNYgcnmrz6HX3VJ82mRII3Zse3Irga251PalPiwNXdfqYfX2HDwMda0n1QmxIH3lgGyG498NdoudSmPE+OjZ8cfL8toj+TzyXbpb9T5kvJATenUdYFlyP0l+Up/g5M6Ke64/TCzfoc42+/ZiLmUo75jckJ9L9HPVzcL6VZXGSMApe2ecAVS8rrjKe3DBPvs1lzuuw9PW8+yWRpav5+fFlm8E72P9Q51RtABCzAxIAr6yTJioPma7BUHnDR6XPwf8shxhyx6FwzyDbwb2PCyCr+BpchCzBR4NaDWA/81aT8PvHJCj5dbPp9adOfXD3e8/9dAJee9awXuAhaDogBb6xLAU3SElgQ+Pu5O/tYfZrvFvh9FdI6r2/xnr1qf0lRvvWs8WXO1xlbAnBlX85tklZkQsD/Tumd4NpuAcPGnGXTfz8IvPGtZ43gTdiKVwS4tK8rqMCNEfHg8i1mGZif4LqhnmezP+o8C1tW8IO9oBhL6M/fVZ4RNw1cOdYVVNgyfQL4X/ttaVOeJ0PjNqFXq/dO+Zs4mjWlm6wESv0DYAG/GX95FMfOTOBf8N8EP/5u+PN85sPBe0cm/74RsSkeAv53gukAv3avjnosz9ffs4J/rbIaf/KtHcp9bKOFZjrvw+c5NK77HsW0jdfAj+8eXfg3i4WDN65EblJSPABc/U2hWNqUbt5Oj4D930+knmj9rPmWvg1GloX0V2+tDE+ldfbjQH7IBFfOR5H3BPEQ8MkTmqOmfnLze5Td5LPWmTCTz6HyVFo1+0s1LyLjKHEwwN9vpiIBd2eECtz7EwveT6bBneD6537yMnqjiJtLsVf3QWuP3DoHLWUMpJ0HNRT8tRfC+TuR4gG/KydpZrYpnT54GYOVkWhSGEd+dQ4eWkWZvleNVv6NcVR6Rs1+oRq8wKVn7JVRO8ODwadzhF/Gx0v/YL/edr0tmSST8tQNw+Tm7sK0j46yD6M+8Kt7luwF3nn6+b/eN1w8AHw6C97bwW/G5+yq/8Q9j+7cBz2vKJZl8/k7qe7WvX8+cE/PPoIr67myeWJwPZCBq+k6j9mmGHWyt+8x/fa+obbjUfP/+DI/CfPybxkjPVPWgeDN3bercnJ6dxNk4LPDMJ7b4OoNmC//pINr1k17IMvgaqk5twsp+GTG0853jxVf/q1+9onvbOC3i/dz3KeBN4stx3w2w1JAmlxw6Zh/s01fhokv/1Jj5NmNFvzL3qBpFcXaVM9+xQHukAoCH0+TPZs0Zxf5CDLwq/sQAsBVEnhvafpuvinpFcBvvy2I7wBixZd/ZV5E+kXwSyx4bx9Ttfl968dkVnVWAB+Liep8izuT6X2Kq9iU5bhPBcD1g7SOvLN3wfI0XwvgN8dVsTPw69LiTpT4InhvmbC4EoILYe8a9Yy2HnMu+HXhTPOV9wu/POkOW2pwo03JAn9PiJvgOrAVfFbYE8BPAeC3gMWdv0K+mOKL4I1lveZGAy6kfWXe2pRsBt4uDAaaePaG/M52nn4gABfStRXC+om3j1vrg/+mrFwqF2/x7MsGVwLXLlI3wBvb4GwHn+0eIQdvQ8b96SlQ5kVVSh/M9RO+NHDV3L3gZtG0g3ergx+sPZNH/JoHbr9+9JoJPl3T/30Lv5d6iPs24FffEGL/0B74gU+mhP5NQtv6cPP4NgI/BXaRk8M6ZYE3VvBbHvi7Pj6n/C3gljbsvkkNn8+MLQ2IMqCmLIF3C5ekp4C/rpEeV1gs4JZ82ga8DZkl0FJ8FfBTBvj4ybsK96l949iOcfB16yuAB66Pzn/plgOu7vTg+r59E9z2+d0E/Hrxz1Zelk7XosEdN7mYvJJ4cH2HmAneO66ocYCvd+Jzck+meWpKNrh2BYi53y8K3MgCE9y2n6Rxgq94pnlwTQUH/1UseGNZUe+MNbcocGOe1QBXritq7LOFhcCDing2eOdaZjkkgzfWZf7vpZnTzcGDGkMS8KttKD4lg9tvEvC9UFHsCxBfmfPhMeCXkCKeC66cyyzfqeCONebvpVRyp30p8JBLTHLB+8VlljTwbx+4vVha27JuYRGZFDykMSQB97YG0eDmgerg9j2v1hb3vrBNghY8oKbkgjfuGaPVwF2JdF+6c+Pa4EZjeKAHt28Vm73TseCmgQbuar8siW/Z6rYmuPbK+jYULA786j8JIwfvfDvfrp4frQ6ujeaN2SOqzMkrx9/PhJLAT8ahfS8OTb19c6y2n3lNcGOMbi8hrVQEuGNP1Oxhs2u4mq/4OJsv82Ig24b8VcFnr01atrY1mSs+0rHNcpqESeDm7Qq+l08v7Fv/b5dy4NOa8swTraiE9DEioclRnXaZVc6Jj5ovInua3cZ61dq1JHinXQ+uicvcReTOcTFIp11IGA1+01cj3uCe0zntssHxDTgVBJ82htK81ETkbpNQriZn2qZEz6XM93TrW918H8r5BXxGiqXsLYy5u/I8hVWnb8MXXciXCIj4JmV83u+c2cL55cR/jzZeqqYpzIjHtSLRBVyztgR+N75Wpl2ef5/VlPdSuAjbluIFdzY50/+IBu/ft7oar8O/TcAb35L1K6nav7siGDc3iAR370fwnGSfZq9mfNv8V6aEgUtXmZvW4cQVn/utfd1p4tDNPy/uPQIBt+9YGXw6xKiFHTvx4I3/IvNEcB21nVwIqvybMoxb25g3qFkZfHYrDxn/DRB+8IWW+JAI3usvsQkFNw6xvRQGn3fa/k9cNLhyz8RMSlnyvpS/lAgHX7zJ2Nrg2lVFRgIcssAXbvPwnQg+ZX02VRHgvq8+KwI+3+qjiYdccS8SmpTZf6XsLZTza0m/wsGn4tfDpTy4fkY/vUNd7rcNKvctXie3drXfb9b/EzXrqKff/ymscbH8reNWqJYbq3qOzvNcrqPXn+T9BT4t7fdpEoeQx1YkPrfI+eM1jiXqrsX4xtjSbw8IAA5wBMABjgA4wBEABzjAEQAHOALgAEcAHOAARwAc4AiAAxwBcIADHAFwgCMADnAEwAEOcATAAY4AOMARAAc4wBEABzgC4ABHABzgAEcAHOCI1PgfaF+iKfjBG8gAAAAASUVORK5CYII=;" parent="_cq7_WS7stlt5bRTaMeV-59" vertex="1">
          <mxGeometry x="5.684341886080802e-14" width="73.46" height="67.87" as="geometry" />
        </mxCell>
        <mxCell id="_cq7_WS7stlt5bRTaMeV-63" style="edgeStyle=orthogonalEdgeStyle;rounded=0;orthogonalLoop=1;jettySize=auto;html=1;exitX=0.5;exitY=1;exitDx=0;exitDy=0;entryX=0.5;entryY=0;entryDx=0;entryDy=0;entryPerimeter=0;" parent="1" source="_cq7_WS7stlt5bRTaMeV-60" target="_cq7_WS7stlt5bRTaMeV-19" edge="1">
          <mxGeometry relative="1" as="geometry">
            <Array as="points">
              <mxPoint x="460" y="580" />
              <mxPoint x="340" y="580" />
              <mxPoint x="340" y="540" />
              <mxPoint x="260" y="540" />
            </Array>
          </mxGeometry>
        </mxCell>
        <mxCell id="_cq7_WS7stlt5bRTaMeV-60" value="Bronze to Silver" style="rounded=0;whiteSpace=wrap;html=1;fillColor=default;" parent="1" vertex="1">
          <mxGeometry x="400" y="530" width="120" height="40" as="geometry" />
        </mxCell>
        <mxCell id="_cq7_WS7stlt5bRTaMeV-65" style="edgeStyle=orthogonalEdgeStyle;rounded=0;orthogonalLoop=1;jettySize=auto;html=1;exitX=0.5;exitY=1;exitDx=0;exitDy=0;entryX=0.5;entryY=0;entryDx=0;entryDy=0;entryPerimeter=0;" parent="1" source="_cq7_WS7stlt5bRTaMeV-61" target="_cq7_WS7stlt5bRTaMeV-20" edge="1">
          <mxGeometry relative="1" as="geometry">
            <Array as="points">
              <mxPoint x="460" y="660" />
              <mxPoint x="340" y="660" />
              <mxPoint x="340" y="620" />
              <mxPoint x="260" y="620" />
            </Array>
          </mxGeometry>
        </mxCell>
        <mxCell id="_cq7_WS7stlt5bRTaMeV-61" value="Silver to Gold" style="rounded=0;whiteSpace=wrap;html=1;fillColor=default;" parent="1" vertex="1">
          <mxGeometry x="400" y="610" width="120" height="40" as="geometry" />
        </mxCell>
        <mxCell id="_cq7_WS7stlt5bRTaMeV-67" value="" style="group" parent="1" vertex="1" connectable="0">
          <mxGeometry x="500" y="450" width="73.46000000000004" height="70" as="geometry" />
        </mxCell>
        <mxCell id="_cq7_WS7stlt5bRTaMeV-68" value="" style="rounded=0;whiteSpace=wrap;html=1;dashed=1;strokeWidth=1;strokeColor=none;" parent="_cq7_WS7stlt5bRTaMeV-67" vertex="1">
          <mxGeometry width="69.23" height="70" as="geometry" />
        </mxCell>
        <mxCell id="_cq7_WS7stlt5bRTaMeV-69" value="" style="shape=image;verticalLabelPosition=bottom;labelBackgroundColor=default;verticalAlign=top;aspect=fixed;imageAspect=0;image=data:image/png,iVBORw0KGgoAAAANSUhEUgAAAuAAAAKoBAMAAADE+1c7AAAAD1BMVEWYo+pPhPTV3PhAUtc4fvrYrdIhAAAAA3RSTlNG7wBXh9qPAAAWx0lEQVR42u3dbXqqPBAG4EQ2gOICgn0XoHUFXJf7X9N7atFCvsjHECbyzL/T06rcjpMhCSguiKIhQABwgCMADnAEwAGOADjAAY4AOMARAAc4AuAABzgC4ABHABzgCIADHOAIgAMcAXCAIwAOcIAjAA5wBMABjgA4wAGOADjAEQAHOALgAAc4AuAARwAc4AiAAxzgCIADHAFwgCMADnCAIwAOcATAAY4AOMABjgA4wBEABzgC4AAHOALgAEcAHOAIgAMc4AiAAxwBcIAjAA5wgIMA4ABH7BZcArys9wDwot5nHVwBfMXozw8dvG8Bvlqo88MEv50Avpb38WEBv98OAF/P2wJem3g14PLhAK9MXFTlbQW/twBfoSH0gFclXgd4P3o7wGsSrwJcvbxd4LcW4OQNig+8ooFTVOXtBK9HvAJw+QgAr0acP7g8B4HfjwCn9/aBV9KqcAfvZ95e8DrEmYOrubcfvApx3uDTBiUAvIaBkze47r0AXoM4a3D5iASvQJwzuDxHg/MXF1V5L4OzHzj5gvcW7wBw7uJswZXNOwScuThXcKMhDAfnLc4V3O4dBs564GQKLh8Z4KzFeYLLcxY4Z3FRlXcoOOO5Wo7gyukdDM534BRVeYeDsxXnB+5oCGPBuYrzA/d5x4AzHTjZgcsHEThTcW7g8kwGzlNcVOUdB85SnBe4WvCOBOc4cIqqvGPBGYpzAvc2hGng/MQ5gS97x4PfTwBPawhTwbkNnHzA5XkVcG7ioirvFHBm4lzAVZB3Evj9CvBU7zRwVq0KD/CAhjAHnJM4D/BQ71RwRuIswOVjbXA+AycHcHleHZyPOAPwPtw7HZyN+PbgKsI7A5yLuKjKOwecycC5NXhwQ5gPzkN8a/A47zxwFuIbg8tHSXAOc7XbgstzWXAGA+em4H2sdy44A/EtwVW0dzb49uKiKu988M3narcDj2wIqcC3blW2A0/xpgDfWHwzcPnYCnxb8a3A5Xk78Pthf+B9mjcR+JatyjbgKtGbCHxLcVGVNxX4huJbgCc1hLTg2w2cW4Cne9OBbya+Abh8cADfSlxU5U0JvtFcbXHw/swFfJuBszS4ejy4gG8jXhhcnRmBbyJeFjyjIVwDfIu52rLgud7U4Bu0KkXB5YMbeHlxUZU3PXhx8YLg/ZkjeOm52nLg6vFgCV64VSkGrs5MwQuLi6q8VwG/3z4RXD74ghdtx0VV3iuBl2xVRFXea4EXFC8C3p+5g5ebqy0D/mAPXqxVqQy8XQu8mHgR8P/W8iYEvx+Q4cveF9UBfD1w2x18FcBXKymDlaQH+EoZPjhEJMBXAR+cnbIE+BolxXMu2ACcPsO9594dwKnB/XMdJM0hSkrAgEnZHCLDw71JxAEe4U3RjqOkLDeEpM0hMjxswCRrDgEe553dHKKkRHrnNofI8OABk0Yc4LHemc0hSkq0d15ziAwPbQiJmkOAxwyYBM0hSsojaXdOA/DUDE/8EtIO4GngQ6JAanO495IyJAMogPclvVPF9w0+ZG2ulCgpRRqUPPFdZ3j2du0G4AUawrzmcMcl5Uhw7PHN4X4zfCA59Gjx3YIPREeuUFIKNIQZc7V7zXDC68kkwIt6R4rvs6QcaZ+4QYav3xCmtip7BB/IDzpCfIclZVjhmBUyvEBDmCS+P/CVbjAgUVIcsdb9BSQyvCx4YHMIcIBvV1KU+Anf/4kDwAkzvPeQNIs3CgM4JbhavqMPSgoleLN8exlkOCH4eO7eYtAsBN4H3D8JJYUQPCDBkeGE4CEJDnBC8C7kVqYoKWTgfZAVMpwMvAm6Vy/AqcBVGBVKChX48lk9MpwSPOCsHuCU4IEJjpJCBB6a4MhwIvDQBAc4DXjItBVKCiF40Fk9MpwOPDjBAU4CHp7gKCkk4EHTVshwMnAVoQRwAvAmPMFRUgjAYxIcGU4AHnzSA3AS8OCzepQUGvCoBEeGZ4PHJTjAs8Fl3PeOoqTkgoef1SPDKcAjzuoBTgEemeAoKZngsQmODM8Eb2K/VBfgWeAq2gclJQs8ZtoKGZ4PHp/gAM8Cj09wlJQc8MizemR4LnjctBXAc8HHzSgngBcqKX1CgiPDM8C7+CET4Bng4yUmtwPAy5SU1x2sUMPLZPj7XptXgBcBf8vF1RSUlERw8aeDE58SGT6JG8DLgmPyqkRJeab2eI+2FuBlMrwdT+5vAC8C/q89aaKHTZSUdPD2PUF7BXiBDH8Wkg6r9sXAn78iY2sKSkoq+G8Zia4pyPBE8FcVaSKFAJ4I3s7zHZs515+eHSOyFUeG54JH1hSAE10B0QK8UEmJrCnI8GzwHlexlQWPa8VRUsgujD0AvEyGx9UUgBPc3CBm2ERJIbubBG7fUSzDY1pxgNPdEegG8EIlJfBO1shwMvCIVhzgJLfRC2/FUVIIbxQZ0oojw2nuPRu8OR/gpDf7PQC8TEnB7axLZ3hwKw5wIvDQVhwlhfY7IFqAF8pwfMtJafDAVlyipFB9U1VgK94gw0m/GmyxFVcdwGnAQ1vxEHGUlADw4NN7iQyn/ALTACwJcBLw4JW25aKCkhICHn6HoEVxZHgQePhKmwI4BXjEjWglSgoFeMRdxyQynAA84r56/jIO8DDwmNtgecVRUgLBY+5uLZHh+eBR9+qUAA8D/6kFx4MPMeyCH09RQUlZJdzi+8vwtsgBK4AXFpcoKTzEd5jhj6HIQTvK+B7BNxXfY0kpJS6R4e84blbGdwpeZuBUR5SUwuIdMpxcXLZR4vsFJxo41dn7QBIlhVZcnRceSCLDKcV/vP3VSS8qewYnaA7l8nigie+4pBAMnDLksyKR4VTiMqw6SYD/QeWIy3PYO6calBSKgVOdQz8r0zK+8wzPEJ97P4ZTmPjuwVPFNe/gMr73kpI8cMq4JlMiw/PEZeTjvIsKwJPEZXTL8xJHSUlpDuU5fjiQHTI8deBU55THkQBPFHd6LxSnI0pKkrjHO2DgRIZHD5wy+Y37EQd4rLjM+KhIlJRocZn1MBIZHjgb8j6QvDdOdQCPGji9A2ZQGUdJiREP8S61ke4DMnyRKsy71Ea6TwBfGDglfY+575KyQCXDPyktMjxfXK5z4rp3cGdzKKg7HpQUL1XogMmkjNeT4Q7xWO+txWsCf1iuRY733rioVFRSrMkp1ziNQoY7xeUKTT3A3VZyhab+E8ATCm1Qc5j8uBsWlSLgl55Q/EDxPm4nXgbctX0hyyrrc3P8cPDkautuDjPrVPvh4JTiLcUDbjWNVQxcHWnFJeFg8JHgxOKSdPj9SHDS5rA9k5WmzwWnbA7Xmin4LHDK5nDNCd/PAadsVWoVLwvOTrz9dHDKVmWdCfYPA+cl/vk1nLY5rLIRLw7OpzkcxGUX4Gyaw20mU7Z4l+WOvTcBZyHeHnYEzqBVOW7kvQ349uIfv8TGrDn8+EVkZs3hIC67A9+0Ofz4jUDMWpVNd3Nu+OGSO2sINwffqFU5buq9Jfg2rcouroBgJL6Pa3z4tCqDuOwavLj4Tq7TZNOqbO+9OXhR8fYA8JLN4ZGB9/bg5VoVDveS4ABeSpyHNwfwMq3K0F4AXlKciTcP8AKtChdvJuCri3NoCFmBr9wcHtl4cwFft1UZ+HizAV9TnJM3H/D1WpWhvQC8pDgrb07gK7UqvLxZga8izqchZAi+QnM4MPPmBU7fqrDzZgZOLc7Pmxs4basytBeAlxw4GXrzAycU5+jNEJxMnFtDyBacqDkcWHpzBKdpVZh6swSnEB/EBeAFm8OhvQC85MDJ1psreKY4X2+24Ep+XEPIGzynORwYe/MFr/LWyVWDp4oP4gLwgs3h0F4AXrJVYe7NGzxBnLs3c/DoVoVzQ1gDeKz4wN6bO3hcq1KBN3vwGPFBXABesDkc2gvAS7YqVXjXAB4oXod3FeBBrQr/hrAe8JCBc6jEuw7wZfFqvCsBXxIfxAXgBZvDob0AvGSrUpF3PeAe8Zq8KwJ3NoeMrnr9KHDXwDlU5V0TuF28Mu+qwC/iXHNDWCG4pTlsLwAv2apU510buCZen3d14LPmsK6GsE7waasyVOhdH/ifeJXeFYK/msNBXABesjlsLwAv2apU6l0n+D/xWpYwPwRcyVq9KwWvOAAOcIAjAA5wBMABjgA4wAGOADjAEQAHOALgAAc4AuAARwAc4AiAAxzgCIADHAFwgCMADnCAIwAOcATAAY4AOMABjgA4wBEABzgC4AAHOALgAEcAHOAIgAMc4AiAAxwBcIAjAA5wgCMADnAEwAGOADjAAY4AOMARAAc4AuAABzgC4ABHABzgCIADHOAIgAMcAXCAIwBeKJQQ4gDwYjkru/v9fhOCFFwdf+L0QVl5tMY7UeXsX9M/amc/VfL+ivZACN4/H/L6OeD93Rpvs2b2r9e7YCCoZvLH1wMd+O/7eNs3uOqeiWzP76fPgQx8fCP3DS4NVKn9+XKOh4J32uvZJXhjJHin/31LBP565NOewZWRc435AIIIfHy47z2DN/qQqSwPsFTGRdzLu+4Y/PdTfjIT/F8L/i+6sKISCP4zOBw/qk15gl+FHh5wY8gc62wrZg3LjQS8GcHvnwV+WmjLDt6eUGqnO6Kjy/Cfhzp0n9SmxIMbFbrRfyIChMLAf97d21P9tFtwc8g0E1ouj3KB4M/a1HxSmxILbvaEytKUNIsZKYJf3fX5Gq57BZfGgNhb2jZ1PJCAy2du95/UpkSCW+qHdXpr0TMMvHm+OPVJbUokuDmNYgcnmrz6HX3VJ82mRII3Zse3Irga251PalPiwNXdfqYfX2HDwMda0n1QmxIH3lgGyG498NdoudSmPE+OjZ8cfL8toj+TzyXbpb9T5kvJATenUdYFlyP0l+Up/g5M6Ke64/TCzfoc42+/ZiLmUo75jckJ9L9HPVzcL6VZXGSMApe2ecAVS8rrjKe3DBPvs1lzuuw9PW8+yWRpav5+fFlm8E72P9Q51RtABCzAxIAr6yTJioPma7BUHnDR6XPwf8shxhyx6FwzyDbwb2PCyCr+BpchCzBR4NaDWA/81aT8PvHJCj5dbPp9adOfXD3e8/9dAJee9awXuAhaDogBb6xLAU3SElgQ+Pu5O/tYfZrvFvh9FdI6r2/xnr1qf0lRvvWs8WXO1xlbAnBlX85tklZkQsD/Tumd4NpuAcPGnGXTfz8IvPGtZ43gTdiKVwS4tK8rqMCNEfHg8i1mGZif4LqhnmezP+o8C1tW8IO9oBhL6M/fVZ4RNw1cOdYVVNgyfQL4X/ttaVOeJ0PjNqFXq/dO+Zs4mjWlm6wESv0DYAG/GX95FMfOTOBf8N8EP/5u+PN85sPBe0cm/74RsSkeAv53gukAv3avjnosz9ffs4J/rbIaf/KtHcp9bKOFZjrvw+c5NK77HsW0jdfAj+8eXfg3i4WDN65EblJSPABc/U2hWNqUbt5Oj4D930+knmj9rPmWvg1GloX0V2+tDE+ldfbjQH7IBFfOR5H3BPEQ8MkTmqOmfnLze5Td5LPWmTCTz6HyVFo1+0s1LyLjKHEwwN9vpiIBd2eECtz7EwveT6bBneD6537yMnqjiJtLsVf3QWuP3DoHLWUMpJ0HNRT8tRfC+TuR4gG/KydpZrYpnT54GYOVkWhSGEd+dQ4eWkWZvleNVv6NcVR6Rs1+oRq8wKVn7JVRO8ODwadzhF/Gx0v/YL/edr0tmSST8tQNw+Tm7sK0j46yD6M+8Kt7luwF3nn6+b/eN1w8AHw6C97bwW/G5+yq/8Q9j+7cBz2vKJZl8/k7qe7WvX8+cE/PPoIr67myeWJwPZCBq+k6j9mmGHWyt+8x/fa+obbjUfP/+DI/CfPybxkjPVPWgeDN3bercnJ6dxNk4LPDMJ7b4OoNmC//pINr1k17IMvgaqk5twsp+GTG0853jxVf/q1+9onvbOC3i/dz3KeBN4stx3w2w1JAmlxw6Zh/s01fhokv/1Jj5NmNFvzL3qBpFcXaVM9+xQHukAoCH0+TPZs0Zxf5CDLwq/sQAsBVEnhvafpuvinpFcBvvy2I7wBixZd/ZV5E+kXwSyx4bx9Ttfl968dkVnVWAB+Liep8izuT6X2Kq9iU5bhPBcD1g7SOvLN3wfI0XwvgN8dVsTPw69LiTpT4InhvmbC4EoILYe8a9Yy2HnMu+HXhTPOV9wu/POkOW2pwo03JAn9PiJvgOrAVfFbYE8BPAeC3gMWdv0K+mOKL4I1lveZGAy6kfWXe2pRsBt4uDAaaePaG/M52nn4gABfStRXC+om3j1vrg/+mrFwqF2/x7MsGVwLXLlI3wBvb4GwHn+0eIQdvQ8b96SlQ5kVVSh/M9RO+NHDV3L3gZtG0g3ergx+sPZNH/JoHbr9+9JoJPl3T/30Lv5d6iPs24FffEGL/0B74gU+mhP5NQtv6cPP4NgI/BXaRk8M6ZYE3VvBbHvi7Pj6n/C3gljbsvkkNn8+MLQ2IMqCmLIF3C5ekp4C/rpEeV1gs4JZ82ga8DZkl0FJ8FfBTBvj4ybsK96l949iOcfB16yuAB66Pzn/plgOu7vTg+r59E9z2+d0E/Hrxz1Zelk7XosEdN7mYvJJ4cH2HmAneO66ocYCvd+Jzck+meWpKNrh2BYi53y8K3MgCE9y2n6Rxgq94pnlwTQUH/1UseGNZUe+MNbcocGOe1QBXritq7LOFhcCDing2eOdaZjkkgzfWZf7vpZnTzcGDGkMS8KttKD4lg9tvEvC9UFHsCxBfmfPhMeCXkCKeC66cyyzfqeCONebvpVRyp30p8JBLTHLB+8VlljTwbx+4vVha27JuYRGZFDykMSQB97YG0eDmgerg9j2v1hb3vrBNghY8oKbkgjfuGaPVwF2JdF+6c+Pa4EZjeKAHt28Vm73TseCmgQbuar8siW/Z6rYmuPbK+jYULA786j8JIwfvfDvfrp4frQ6ujeaN2SOqzMkrx9/PhJLAT8ahfS8OTb19c6y2n3lNcGOMbi8hrVQEuGNP1Oxhs2u4mq/4OJsv82Ig24b8VcFnr01atrY1mSs+0rHNcpqESeDm7Qq+l08v7Fv/b5dy4NOa8swTraiE9DEioclRnXaZVc6Jj5ovInua3cZ61dq1JHinXQ+uicvcReTOcTFIp11IGA1+01cj3uCe0zntssHxDTgVBJ82htK81ETkbpNQriZn2qZEz6XM93TrW918H8r5BXxGiqXsLYy5u/I8hVWnb8MXXciXCIj4JmV83u+c2cL55cR/jzZeqqYpzIjHtSLRBVyztgR+N75Wpl2ef5/VlPdSuAjbluIFdzY50/+IBu/ft7oar8O/TcAb35L1K6nav7siGDc3iAR370fwnGSfZq9mfNv8V6aEgUtXmZvW4cQVn/utfd1p4tDNPy/uPQIBt+9YGXw6xKiFHTvx4I3/IvNEcB21nVwIqvybMoxb25g3qFkZfHYrDxn/DRB+8IWW+JAI3usvsQkFNw6xvRQGn3fa/k9cNLhyz8RMSlnyvpS/lAgHX7zJ2Nrg2lVFRgIcssAXbvPwnQg+ZX02VRHgvq8+KwI+3+qjiYdccS8SmpTZf6XsLZTza0m/wsGn4tfDpTy4fkY/vUNd7rcNKvctXie3drXfb9b/EzXrqKff/ymscbH8reNWqJYbq3qOzvNcrqPXn+T9BT4t7fdpEoeQx1YkPrfI+eM1jiXqrsX4xtjSbw8IAA5wBMABjgA4wBEABzjAEQAHOALgAEcAHOAARwAc4AiAAxwBcIADHAFwgCMADnAEwAEOcATAAY4AOMARAAc4wBEABzgC4ABHABzgAEcAHOCI1PgfaF+iKfjBG8gAAAAASUVORK5CYII=;" parent="_cq7_WS7stlt5bRTaMeV-67" vertex="1">
          <mxGeometry x="5.684341886080802e-14" width="73.46" height="67.87" as="geometry" />
        </mxCell>
        <mxCell id="_cq7_WS7stlt5bRTaMeV-70" value="Streaming Jobs" style="text;html=1;strokeColor=none;fillColor=none;align=center;verticalAlign=middle;whiteSpace=wrap;rounded=0;dashed=1;" parent="1" vertex="1">
          <mxGeometry x="480" y="660" width="60" height="30" as="geometry" />
        </mxCell>
        <mxCell id="_cq7_WS7stlt5bRTaMeV-75" value="Vessel Consumption Prediction" style="rounded=0;whiteSpace=wrap;html=1;fillColor=default;" parent="1" vertex="1">
          <mxGeometry x="79.99999999999999" y="840.68" width="120" height="40" as="geometry" />
        </mxCell>
        <mxCell id="_cq7_WS7stlt5bRTaMeV-77" value="" style="shape=image;verticalLabelPosition=bottom;labelBackgroundColor=default;verticalAlign=top;aspect=fixed;imageAspect=0;image=data:image/webp,UklGRjZmAABXRUJQVlA4TCpmAAAvW0NLEI1AjiRJkWSZVYcZo7/AjYfviP5PQJ3rexbHyb8ntWFJJS8880nmtQhy0pGTdkZ1clSTqpUUz5XYRbCND2pSO2FViRN5uVWT2rJqYZUjuVMnNak9SaUIoag0phSxUZM6GwEJBmNJsKg70O9bIMMCF3XHYGPGNuBOggCZVBabs00qw6s6ARvbrosrmNixO5G3r6lFNSQt4P29RdICEnNP6qc1XUh6ZtJXXF744vM1ywmTSJIkpX99J2DgwfUws38sZxJJkuRw3n9w4tDBkrBOI0lypDLl/Lfm0GuRrx8uPLTR/wn4oXmhIzHlhDOe7iMdcAIRwCQAxIl4ExIrZlCIoAIDRMSNCETEE7xBGTTjVQQBOgRqBjGJiEBsBP6EatKwpEAwAhpngo1J00YAEEEwQsyKAxEBVJqIzBgRAwAFAUZgz0TEzpliIWJQzZ+INGjQyQ8AJMAYKLOw0PIAuY0ASzaKpfDCGGj3h2C2eCwuIVyyFj0swI5Bsyhu2zaSvP/W6d2i74iYAJ7pp7JwTWRCPUJlhmN2P8ZtiAqiJomU0ZYzGTWjsjebdVGathyyEbYsNBdq+ixfcixDRD2k6fAAl/qZtm2RZGfbjvPKalq8xEwmM1m40BLTr1GvvyFLIXM8oc8sty1ZTDOxeDVV5Sku0ZWZlYsOU8xQYmZqS8xMFjMzlbhlMaQnbktQYnCZcUIWM5SYmVWmLKa0xJJFLWZmZmaGieiQNSGmWVFilkUpBo/RQ5t1M9+3WNbcd9/MliDg1ratWpn7fNyJ6L+KXwc5sbvL+/ceurZtq3Kcte59qipBg6SuYWbmP2BHztsf4YidskOn/gg78ycwxa3IzBrVDK6S6t27KQEAmLaNLDLFjdvaTUMrjJmx65iZD17M8L03MzMzw4+ZmfnGEKgzN87q1E0cWzAB2uf/XzVHUz6f37laRjOTTU9nOr3y71z/wS4OtxT7P/tu0pmeNOOS7r7O7/Mg3b/fOSfpu/MsX9zdgsPq1D5q3B2Ca2obn8KdXm9cUxzc3S58XW5tXIbKFpUq3FMV3J0UFx5c7gpcuLul7nX33eCeh9khy2pqm2Klb9yGOrg7Q124T61vcHd3Dw5TOKRY3y5sfcuzbduu3da2VUrrY8wJEpRdcgmCluhCO+1f2t85Q3vv2A57L0PKe2lLhADMMXqrviXbVu3Yti3PtXZ1SVNzxWRm+NT1ZW3x61qvTJMxbGpFqKu3kj0AAIAozf5/XPcdd3QKiNg1u125PR1v9/t+uru7u7vz6e5cp86pm8lUDARp6QMuJ0Dv+3+PJPnNQ+/tf3V/gv6s+0fpvSfneaqrzd7e7Ml8gwXNBC23QQULmg46ONBUsHITdHD4/X5sCCM3QQUHmg5GboMKFjQTNIjDAnqClZugQRw2qGDkBkQHhw0awshN0MGCpkFMcNigggNNBwPhsMETrNxAmOBA80BYuQ4axIGmggHNBA3iQFPByA2ICmibxMhtUMHJdTB0GzzBgmaChnCgKUArN0EHtBWs3AQNYekqGLkJCsKBpnUYuQ0qOMg0hIFwuABybNumrfFsvybzT2Cl89Sz9VGQY9s2bY1n+zWZfxgrkqeerY+CAwAAwaQ527Zt27Ztm6dt27Zt27ZtuwkAAJdwjvb1Gqucq68SLHQ5G5IVWgqDASQQAWNCR3FS9D+gfDegre/qEAAxw5pzQbLKtX6VOUDWRRIQkSICWwwiQQpEQB1SE5TBo6ofdAz/Ojg6PbMiwMMZo1iELoUyDRkAtgGLgT6gE6IwuBSGkDPCt139w5T1p8PbDQAWyhBmIGlVOoAGRICcgWYCRtAd4E/Fx2l8BfwbwhjIXFU4hADAAggEMvAEHcEfKm/U4gP4sQrQ0IUBACugYMQANMkDbzl8pcqNr4AgbDFH+7qgInIG8CoMRgX/Au9WqY8syGyoGLJ4DvgdoBcZkIJNyPcqNxg7fwO1kMVrHgmCxwclCi44KHgB/Bj4LWRxL+CnWzEwBYYEXwhfBd4JWRwROMngFPDBY8AjwNMhi0O+PEABwv9R3AXcF7LoAFoByjYhLeBm4NaQBZCIApSIwuuAG0IWAGSgCl4HXB+yCFhH37LN/6NHBL8F/lfUhNzXQdeF7SrLwQkhljcKTonBTxslX+ewQ9Dj4mKGWMEzahg10lyUJnzdRJBqMZ0CaYRZEtfI56vxyNfNwOm00eM4zDK2/7f5f5v/t/l/m/+3+X+b/7f532sDFVc7CPV24IMxaXHNDqp6J/Dh6FhS+kHg3quObmX+gI22RhXCsKg4MroVKmuKomECbIxOJa4FNxIJLIWngpPRp5RpFEMxosIEMYA4utTZ+BgMDN5k7SpCYQpEHJ1qD7uJlGpAkkChbzL6lCG8gAB5IFfnGHgqquiswNGn1vlLUXs29P2GKaXM0ac+dfbuM2pcngvDXsWgkCZeoM4BAvDgtSauHGpmz+LJcBQLEGKhTBEZWAEaizqDqHBMyWdnHWdSSqR34hd8Jb99c6ifDmAQvF9Zkp3NFwbZpArEpog06L3qUeAig1s5QMyizgHUOeDVhe+WVTBpoMAm/KC6PmWpDp1gk1338Y+zMwU59gJ3+xEP5WjUNgM8OY0Ee+QtPwAtogS+o1wqaP0XPDicrEPqJ3AXu+8vZbaXW75bfniYeCQ0eDAm+7AqNBtGThgB+mXLyTwbmEQg/1OvRnoEYmfzKJxn9d8+2Wr12YYQPBsDMApHnxrYDcdZaHDNJrml/JQ/vBVtCC+gHh5MVLsxUw1rFbuAVIHWf2XvH1R68cJ2+8q5HefFuRICywvG4VlmWoGUR5AiGIUutiqFAtRYSh+ZTJIl5tmH4txDi3uc+CF3YRTwCanM6Bang0yP7F33qHR9QAMc76o2tave/HLqkt/+VNm+ydwguLEjvnsyI9xwuZBxA0YQ+t0ylRdkylCOPQmfS9T1PfW/R+8VgUrYsfrjA1/1MXv/R9q4aufgSCaPXFY6rFikikpGIkTvyqiSQCfGumca46k49uDzycW/qHTyusXVQTaOmC5xPONfjGM1k/GK5UBq+di0PIKSwQgMQBQIpd+FqgkVoiiSdExcrKh6dtO+ROXKabllLhwK+ITczghA+54TauCTwhYEO0NaF5XjXulG8j6+Imb0jvvehXethHRc2aRuLIuTsCPLfJPAATgbAgvKyAvsVmCzcqXUE/8Rya74Ra5G6SJU2pkNghgHkxwIHpC4ApOIYwEI808w2hn1EV4ZTZagPH5oZg8bAxuzdrnBy1GXYD1y5AitKlInzdEmPSumXjF5j+te9oJdeWZrGSy0AW1lIecKNwAZhUzr1zmggcdawO6jHWSmQ6SZQQkYBSvgOQpsKYCqsqpss2gdQTn47WgrQNyTB465wbh735/JAHI29dMBnnfk72pfBquFzRagUhaiZL919Wt/tXn9Jr2//IF0iyFhgnFWFSfBKRACgkAzhLYMqQwFNk5sAdfG2wKwGdQe3AE9KygZu9uN9VWSnyFsRwSYAN+uIXRQTbUUUIm0QISRtaAxN0c3mxuimtOxvuvHQM/h3os+B4Hez8WUFMGfQ4AQEAW1PnxVVVaWlNa5C6UIMlEBTYr1gJnLbHfv+yh3IqM+2LsxybGmQPsLUs6IrNWYtzaudjO6p8f/bDxr/Mnt55qiM/AsaEYY6igDgqCqsrJ8UhWFTQatQ3FoB5h3m5X7wjoglRm1zr948nB776XnLLJIFXASEYEOleZ/t/itdeGvLS1BFXTsMs5MNqAd0DAPoE7ufbuVAL6tEqFKykHYKLCI+NSfrQFHW8eGcBHVeFp3TBdWYYNgQDHuQH1s9ypPh2N8uQSY6cYQAoIPB2JTmFsUaPFNoHw/wC7TsGcvp+ytOgd6LItXdjqsyWLE4ecAFwgTIFNHmgR5w9flKrBs6883cBAYV12YhjScEmlnNwTDAJhNDpSQpqFdYkWxqN1inQOebLFR14D2PeE4+/7zd38dAvkcNrGg0TZkMsQBaFjuJbEWb3k6THm80ieHrRtNaN1gtcK2iHhJnR+39cgWfxeqej/AI3bD0sad1r2w1WxnsfqZjlrlR4FRqLkgCIOKTDyS/Vj4JIs6B343f2HqfqjLjdUBtCKaYb2kLhB00QKXAJVpCcqAHMjsi0SS7VxrXAivv5NEfMqC57CBL/azSM8yHQLBHnwSNEIahlCC/OlueOiupIHmwpadusyMthTNLC0n/Pprs4CAYfKbgahImM6y3y3f4uow1zmgrWANzgo4Izn0XDBFRgErtPt/xGPYwBmdqpeY9pUmTHWTMYAaKIMJhgzM7EmvB67KfN531LQCXP10wBn0wJy0FpFBgrbQm5kOuHk22/tcCbqGJsSc8CUQP8CahdgjwgRF2oU2H8r4bvGPlhP0g1oNV5L7NNM5xPkjb9ciBRF6SNbbWLW8kncP+lhW9dOBDYDBculzzATSJ78hwFvWBAxwiDbEGY30y2XXpn726x+oVhaJOGkICj1iQcyQBthGHBxx9dMBDQI9Dy6O3dXF+TTIKNRhmSJE4ATkYzGfjS+PK/2AM+n7BELOIUdPK3w7LRCoCdvpuHLAug1/eUNWP+Zidj96vgzNIchrLFs0/6HzjYb2gSt8nQPY6hXTpSxoV3EFIKHd/+Pi+a3TuS5Ao0w7YMsHLcfbQorICWm0d/cbZw8zg7DVTwcY51ewCmLhAACKkhOxPpBd60NP0vdvgw597eez6AVSSCwYPR+sm/6v2TGrANgtBuh6yqUjMiEJZ4AWK6hESUox6+vdD/bsir9+icuofjqQ/lWoa3oCGoHpBKwAaTne9kuqSILNZUZ42D1n//6ReIEMjBZUgFZYEPDdvpq4NTDW0NpY1hOgs5AbIVi284QMmgHZR7KQzDM4DKnKQAA4oQJWWSgAMZCu3AAb/vIGrn785Ep4nwHzXUYLgmhZtCIQcVytH8NhnwfQY1u5Ju0zZMBESSg8IYKwAu1+bOXb6O6Hl/5kzDToRShIWBkGyZCHmT2LyBmRp/xhT62GqX460Kh/LzcYYTCgBmj9+QYNLJcxl/OCzCxSN0RZhgpELgSsM6uXy+nx9WH1fszc7Sc6WXSQdZp0juEFjAYBUWYGO0Pn4pn+uf+VvnfYsng0XMEHVkNumkJ5HEkLZLd89wAIgyHc3wWc2OCHbLNx11a0QHGsujbm0Qbg5tDjdFrJNNQtIMczMjOh+kXAEBp3cNUlcyvONBb06y341UhQNfzlDV7x1y8xtXweB3kCGECQ11iGQAt2gszs6uvL6OoPmLZuAayn3zjkmIohsLZA279A8pDNjfmms2eAgBVQcqp8yfV8pRveuwMVlSECxDWUzEWmX4G8+yxTFhjVscT5EWT+Frhi1gUhYT3N9AKjxzIGeoBn6LrQcxTK4gVWfYMj60ugTyD8Oy3/kwIhlwOL4JordNzmvYjDPsX0WXa/DBGWL+S8A7zURt74brETl2H/+7AzxmerXE+TuYCgKNAyJTxIppKar/HIs3VrQHdjkYwosWJISBPbHVvz2CnEF28nWKyIFQMHbffDD6eL/kfLDVnu83/YF6EeyHrUMkaYQPuI4bSuHRecb5GBCzY3TIKOSz7LXDAK51BGXsHTf+HqHEjUo61ZnUI8xcw4w9ayIjZhssT3sBhtbUlexT8eTYPD4+x5njEmIZbzDCDKpN1WG775hdLKz11odazHQUMgZGUZ0zpYM1ZT7y0/PNzHtl4BaFS/Ub4c0KICLf9DB67YgVGnx33ioehCEMAiwgNdAPr6YK2fDiSnlsu4k9nHQFsB1rImqC8JMpzkPrwdCKHMEu2EObvdpJ2e9Jw2/xI45/GXqZj66YAH4LwtyTOA+xGtmB3hLGNw1TU7gG0xHm0VKLftbpgniUnAb7nPscHskeUZWQOmnVP1HYgAmAsH9lFAVjcpCSr6MbQC8FarZDzuhkoH6CT/i7bvf58Rh32WyYxI4EGtoDI4iIPR34vhQTD5SMBRubywPWi85Qg6ysxcDVY39Yt1/ibLvnpQyuc8p8/c/2SJWQnyl7EzAzTvsIIuw9ieqkfjfR/jtxiLvfCTTgPPAZTlL+gmU/K1DBQK5HJiwGQ7xeoAObXPsn8OaIhlaOAKvLWqwQFstICusQfSEvgRrf8mug+87M4A3bNW1OOLIG1YDHvQ+bwEqfd1ICwCnAeIgKQ7XdZXmelnxrYjhyd+ZIQDGsSKj7jV6SB6DlcXZ2ce/KQVdvEOrkx0wbgZzR9WbTnkjax68Gzy656TnfheVsRTh2FBxpaUXwc0H4CA5xCSEEVajgpILD+S4Nj6wtU5kK1TE/I7rDPnLn1IqOip9LEfYFZphYY/vYUvtYE6UT8kqZBmTMGH/9Yi+Mnje8LMIL/Q72Csnw4olx0gTRI4a3nOSn7Sr0pGEMJyhSxKu9Nc+GNhH7t2voW+zae38KWSaCDqUAOpoopaVWyQhEKYoCzFGOBRZQDNPBdB6E8qohXn9b9akVrIije+xLi8+13O86S9gCG2iVBUFIZuArhzBwCeCjIDOMZm0pNNzlLNXCACMQpitjyvIbVBnt56tax8jtg6NWmv6OwAHAhSMNrfrbrAmiHlqwhKkaSnFwmDHKicpEktsTAZnOKENpB+oY9BQWAMwMhlx8I5CC6X1m4BsHxPCk4CsXx3vxdSoe9vkHUOIEiLVo2cY8pXEW1CktlkW6azrThueClgFGBgSU4eEZSrk1HdfyoGoNEcSXH3P2WKSPtBEas4UxyRAsiK454KOePmtRM1T8r4fn4UkAWOhDSTuqlwoDZGk0DtjDBEDGlldLkuedTLHOYA6qlBsFzMBEbsUM/ET6OG8C2q9XQPm3xRSOxQqHNWEdfmvpzFEq3/H1uIFmFAoCEg7GbgGGRLxiDAbr6jmJDh178DrPCXhiS0ng2dwu/U611DQC9p8BdRYNg+dlm4PIApl1OLlvPeh7OcF3cj+N4/sFVA/XQAc3L5P6xE7wlDKv5+mQf/HclqMs/9UWSGUcL194Fzb/4XPe0Oi+3iTfreej9AVJAFJWIRohGuno0lwrNOEDdoTwm+4xm0JDvBnIxSaFT5nYNzlZvMZPXTAfWBoO1gOsOw7gw79L9Bt1QrjLYH5VxPwzwYyAyXF9HJTADGvC8MkFVJqdaVLm6Nwzk8MQJGIlQ5PRzTgINx+jSE29HgXjTSxt1i5OP1LGmzwnQBeiBhHOWr1O1ADiT0gHMr30Z6VzNtpwKx0KUSipJuanS+eytuZgYoM2Ybf8L0vCbA+B7IN59wX5jBYpzj8wtrLhMuWYdQBLW0aqH5huMmXmoT6oPJ6KW19n6O1qkYU4CkwhhXoRUwdw5oZvwvssNCl0ogCdwYnf5+AyJA2cwWbgaOgNtD+x1N2+duTgSwlDvDDCkCudNii7hwvMWxzv9g00tXpwJ2AKJQwJOiZ45+4RiF/i+BQ9i1xq01oDpZP/DT4GFPD9vgnIWDFmGXVf6Z9x7cj5nZWkB45+vkml9+9wXiWY2MvaW9Qfa/YQ+8Ka49283B9kCQmf328l8qFEjdX95u3wq50icrBCX4uTFOnwb03wSjLhNtt0p5JMfk9FaYPYxqy5mfFAz0BZgXGLzGahGirF+7CqIkoYrkcsoGkvOdvI/fgJtsOvwp+NynqNN6XyR9jnQacEQggX0tI7Kp/ACNkBERkDCZI6/yy92Z1feEsKL48hm1iZR0wO7GjxCrulewMfVB/YJ5Z1RFhku8cVXAuaDOQgvD/jmqIEKR6l4fpHhvFNEFm3T7ICAOIRUPqPJwETCQYCH4CLwg8U5uFMvdhUUAyhWIYsbE0YAIAjEWS8kieU8+8u2z4e9JzckSCOPrnlEl1LJI4BLjfZXVn2qbrgUwtxru2tCvWt9jTz+MOwxRexp2FzdenlfmcpgQUGdAHkKrLrPn3SVK+0fpPgvNUi1sadqyEjCk5nTZxHRphk4rYpmBtgr6TuVClV8GsAV/boHhger8q9S4NlfVtcINKuMK9IKNBevQxoz5Ggv+36hEG6S24ZcbbsE4X7u6lttpdH7kqSNUYKbG75BbE8jKrDNW0NZQE0tLyUFVYYRFIIyIQ1WgkYmQg45AVlXWOWeTyI7XtVoDpHnaWPzsToH2Su0tAohRLRIDGXI2SA0tgG2vBQtFYh9x9wkuQwHQJmu3/QULwYo18FsQepgEATzBRbQXvpvFj3wFPP/Dh36Ei5SbjRJSP5k9t68qG9tt0vrpALkygY69OggM+xIqWehuenBr6FZi+wRmdrdwYviK9CTImbDb7mP3U6/P+Ct9ey4KnWogjpGuocx797Lbzr2x9aVcW19V93+SMtosyIBMlkOmnKpPFhAKCAQ+XXJcMcW4Btyp2NxFK55H7dow7FXZdSmIQk/YNdFASEawcOmQzhIyfgsfC+40dXLmL4ixCDZIFSaZJ5Hbe1Nlw/X8pZ821j3+cRYv/lMFdKuGtNj404fqvUVT3D2bBbTN5B3VfKqznSEoZWmtPqC19aHV5Xye9OcEZG8EqYE9CBtqgR4k1fyFLZyIi3ymYfsilEsLndUdQKzvMh21PUEISC42ZVERmY58BdhHp9cx35IcFv3YJK+kZf2SF4rlZPsUFqanALeF/1R07ijWh27F2zb5IAh/5HX7+n7YX4wwVa6o9hI2WaCUSwlSErm38X7+ajQvh1d8/1rolGUZF6gDfaEP9sO14F6E/Hmy2MnCvrZp0kww1TVdItpu5VxABSQbDgnQwyIxkOUc6PtVBoGUilzxBmNcDT5LQ6JHgGR9N9K4xUUMfwpZ85Sf7c9AZgEurHVSWWhujDugHzVW4fXXkjNNM2uewJENnARoK0HGCRVGGMkl1Xx61aUDoGibXvwrYMUbXzKe9erPs0/y7RieCBBALli1oSpg9Pho8CxNRI8Qskjm3Vm6tODW2a9/oJLhN1AdlYCwU7Qohea34iPGszDmmHHJNRuDtCYSRSxim/n0Rra0yQfhgatVMv6NiJdR5YZ2ibYFzq0C2bv4nly/xpQ7GWJ7oB12j9x23gaOcvliwnUkn4zd2L/i+9d808xYKU94VbeI7ITsR+jIAoARpGvItGgIVQZrz1HZrhh8P21YDzARc6Z6aOAKspU+9Iiv7B/+KVDb3udQPcfovysbpAqMFN77Ofa+gAI6tQSI0EvrXvTnZjphzdFFGZGWCoymsD2gqB/gnOZnQOYbdb28/lbyhE08fG/fT4uq7EInUUuMosptZK4DD2+2CUsgnw5hxiXGscXOuf2ELPBW14fLL3vOZc4BoxLMgGRgpNDOT86A/+ovahnTGtNE9zzXrkLWwts9rz5KfqzsT21b8B4JJQPnduk3xAbXQ1XKX/M5LHKepARtq0/Agv3K72pamVIUFLTUZuTlijjGZKGdz+Vrp11PHKhZOGCHOrUwDQHJA5AOExtjuegbX90hmzBKzGi/6cpvLnaVLBQI0HRVsB/qbNKxaFC03YrBtdGG8ciAaS1wYbniquCEXrF+OvBVELqWS3fS0wrGSHB+LJ5dDtRIGEVYiEOwi6ANYAN4be1Lf9m2yOSG6sfKX2/hAOAAOwbKCRKRxpHZqW23vUM2KaA7lN+lyGEUoKrk1OtqY1qzwHR1Aubhl4v6M2JDIXUObNU7hJ6HOuhuR07hv4pwIEaBo2X+IyinYADMoOgj3TuSzQhz0t8NkiqlhxkbLBac1wnUqjJzn2gIVYv9SFIaycr4sY4wzd2ECImgFg7UYSr+fMuuBxxk5voseLP30BEC+cEgzz3AlIdQIE2D6heO7+E2+UJQNf/tJJKydOpZbONfMbvsh6oUTZQGlXPfD0g2LLPWRupDwlAkKtA7Ptp5sLjD1Vw73ygtKGRTAoVCOU4KQYBFKagjpBrSHY+lL2WxhI5WY9QjTAABICfSArAlJIFaOZktoO1CiShCBElpnEfDyIc0jmoaEqBiDGSABTAAeM4QYHUOYPUHzDhcLbW+0d8BXEikFFISA8EMDZGeRTgGVxZCJircO2GxiXRmZFC5DKtaVU6tC775fJy6RZmt72jRjC2RxHht26Wv7khYUqdLxEchYe2vj65qsUKRcfAdI3bKkMryjq0ceTAyQsLDZoGdj0ZTAEeyKAMqqiD/A+fQolhmX0j6L2nDeoiBwZusXQJ5KJAetc4BrXwb1fXWF/HhT/9SOGTRAzDfeCAmd5C8XKsqJxY6hgZNFJGNEkpAIjkrN0NO/4U8tijJJccgDA+EyYBPGELC7/nxgTd25FpUDlk8pLWt0O3WZefHu4hM1YyZ34XkAeeZ1nynLfQ/tgg74X7QMELzrpxj9KhkV0J6hBAjjF2U4WM48wBNEcepfCFUhLoqp4BaFj+VhjzT9yTjVjOuACVUugltGC3UAqVUA5IESgSpV/mPAITnP4fwyb/K7TgPgAz2EgWTqjBRDtWgDY9/rKDuJ2TKUQ/CTDK9IFnoWigbjsQDMaaKQk7Vsj4GwIBi8SkAAv1xVYQqAAqQz8zp60kLUcR6ezkGJitsMicGCBsAB/W9izr9IYtn8Qq0CmsjCg8UNXrxJMqdnIm5q6xbblsecmXhJLvOhKBvoB1GCLIoK4gZHfqd4T1FoDOjCApYgTbsAQRzJopq4Kmo0DkE0yMfw/OfI6s++Vf0dMBjgBuXL3DP9mr1Lh4gCgbUXM6kSi0IL/5THVuVfK1alErZuzPjPstBHfyiTkZZFvQIQPdja5nFPtq3u2HFG1/iT3v1Zzi9fIG6+5VFESDi2ghQ4NpcqtN4y4G1T1oTMhRokTPfQ9rC5LZwPkL54iHDPIeFly5TSAsQhbvPVZr06495Ccjpclqz++2UDKY8XsrDB1iQ8ws1o9XbsugvQHmfU2wy8dNEBDJKRhsmBEpgUmiAMKZXrj//BXbet780dh8fnUkPq5QSKOfd5lK3KlTBSOscsunQCGpfePxqTWpEIamQZpPbT0pQG5DEknbZ5vkCr+8va55MIur7YhAUXlC6isj5vn5QTpZ7klgmqHmLlSmSHqVnO+uBR7CfyDTbCUJaJEKXKSezhigPsVErAzRiBBjELpY5uzZoDWoMf0Kz4BSYhnCvWfjfGr0rJYyQcok2nDkALNDzCd0V8ohet84Bn/sWqvv1J6HLz1aFmeAklsGIxdxZoK+bZRdRBYElOfmZCgWTS0lV6bkhB5VYH1ROWhRUY6fUBSXIbNevKAtVPx3QKpBdF08CekzsMSF308dQbcblZFSLVjDXzTJFVIFJcURARijSyEvI+J2DdwWtU6pFIvQ26QKi1gDdimCGRLgBMkbSHzUdW4/agEZj7PyCoAh6WIsp+8UvAtbKilIVJ/dj4aMdIlSNEKmvGlyTq8RnAmq0Yj3AZq8JqUNJsUAvW+dA+t6FJQPhCkHhfkEzFxNrXEQTUo9gIzXDCAjTnQX0lG2OzCjciFdBCTJ8/2v1PUQBdb+oXPEmLYI9GqEW5h0PXEF3H3HAPWgueGS7aF1I3aAuGStk+tgM9m8QgBV+9QeM1N2v/5+WYxaAIruRsSPwkg1okcwQpI6vFlOekDFENdPbT1XZ+i4LP36EGeas1zAvkNVfESmggkaYwHVFjMj8VGerkWSIC13KyArxyIBpLXBhqQQqMKGnfaVPDls3mjBXSApBIVInYBTwWRCMGUQG+eAQrIBs8xRLvRKNkdDCMuy4eUruN1pEgW91fQharx5xtrluux+Cbh8niEkFn2VDQVEYBIE82VHbDGsXOlNWEkgC+lIMFEOyqqpt+ApmsfSOkRohNMZIZXoaomw/WPWFMsyMBD/3D9ZVwLJadlFRAkcQQdBPG5OkqHhfwJhApg3hPTiiBXCUcQ6ZIesNQHrWR1tcfbgGnWezy+kDnIRDxAZi+4MIbrbaY5szis6HzxquvquHtRBAFJvquSgO+mbwH19g8JoPi2YfAbKcpHYQh6oOhlXgGGS1xzbTEX+M905BYNQgkQIsfP5BVImKbI8dnh0WTWHP+JQxpaQoDHHPANSBRhQoioXQCySr9zCjBsX09lGAnEaFSgrppB3rzLkL1wVTZH5aoVetnw4Az6H9n+AcTFz3maTPaWEEsHwT2xKeXtEHvvuFIayqokoYzYpf50DPvv5A9/BR6F7WJDBNZvK9g1C2WY+8BJznf3J+2UMgQwRjkS1CAuLCyfr9Xsb9GxDnvSAA9+NibBdliDNmJFDJYuVCfDYzDjir/bAyHTDGRwORoQ0NbEOVBkCtEDdaQB5Ixe0PMHrW+v8d2OBLrZwmfeUJyPUdQY1KUAraIkRWeOfrYBwomGzv0P+OUC1wrsqtzgENXvOjjKo8RfiROAR+9jk2r4ErxDsifRYYssgnnn0Qv+Sm5mIf3+KT3KE7ClCUZ2kpFyBuv4oMIpcxTBENTPrgGc5qGg/nkAiL2NlNG07ao+hHRkygJowhrEDP+kpPh61r0eHahCoTwuR1AGJb5HN/+h1IA0SpAmoBWWRVWd63uDrMGhdf4ozDmYJmvsKsbe5+ufqJaaIXsMdco6IBx7ff+OCZtwx9QLNMwSjbH2ecNEmzWBEYQXTffoK2NiS9dAfSoqCHVkx6+o0bQwFUL1Wgh7316ZjWyHeAuYexLfVZAJGCUa4HdDtIbwEiCnirJ8ewWM8gniNtty1gbdz6Fc+DOhZjCI8MKbPHu3ePZZkU0FHspeIKyQyUzBP3F6CtDeNHzijihsoC7Tigu/G7DykogKzdu9zjPx38mTfGiTmQxwTnw2XTRDRmIMUE+joA2aw2/1tcHSSXPcbqedDHAO9N2QgiIBL1ZgnxACUgFFCIhow9GkUbFmk+YpFIRdJm5HRjb313Jlt+CPBHQzgjt+pNCjntWBjVb5QvV5hRiZ71FZ4O9gy0Mi48MNBisQr1xO9ilGZe/YxIfWGBGfl1AD2kLoCd0rCcR4aQbrLY5QWYCtMSaG1hRqTyrxAiJLEHVGWQ4RdYK+LIDeT8gyCyzsh1imG1yPmfinQecQ/4wDJN2QYlWhlVCUAGFQOIktH9oO0vzOd9ERBVmcQZYAUUmEUrJONxN9xAByv/Re/acxBUOQ1yFgpYNCUjsl9A2GekU5P184wJtdokUfrb0sIC1s8AM6S+Keww72mqbMAiiJpFHySOgU2QBy6z5xUdHeK1e9L7Hn3wrKE+6dwfqe5+/zmmFwVvIdaAJTtE+gzQarEH5Tpo6IV0twIks0FHe06EHnVNjcIZyAW2okD0XcVBEL6olaZDSmC4izZscAAbLaBr7IG0BH5E71o/HfARtxuGLj7OyQhAAirAGmJXlbrrk1Yx+8LojzIX/qDQbJv1PWZHVJmqNnUPAQTiyTwbIHsLFtl8h6psAg+/GXsOoTh3WSG/FsWOmfWBZqYsyWUh3DDocp6XafrEUcAqmKvahTcgfyIbetf+vaRGHfUGzKCqqpjn8W4Fd/TC+OHhQZo5zAQ0accfufQh4d0rAuhhVoIE3NAIzMTnsPBDQAlKqRNp5HJc298AM7MTtukPKKeutiXTAhSB8PmIQzJ50AjbB6z5YOPZwTs0s45tWratgCM3kJUgvCbZzjA17o04cAh0nricIHXCsnVSvgyhRjkHSrjBcQKwRxXAYjsnEqiF+bz/KdYazTQQgIqbs0L8f+wAHAhqp4fthZPDczCtn6OKQMRktrTPQlptTs53+oLvgJtM/E7eydS1MAaVs1vAdVuKkBIgC3JeGvdxE/dviQ2odWxysRQ2pQirL7hc7xFiwBvPDouETpDs+Np3sVsbQsMy9iEDRUGKqZSgPhc0zhAYUzRKRmafpbFHlML8ne8Z3AGCglJgvMjjaEN4B/7oTkCNxRI9bP3lgXJwMZlhNBGgBSsUWllkBUxx/S0G3wEtlNK/L6FNXetw7IdlmSQROWXB87vYvQ98fPnR7cv/cNK2QAedjAqr7c9t5AbYB7K2a3M9TyNpJWgLX7oRiLDnvZS9/lM7WSmkt89UjjpJisV5AGQQULSKYY8kFXpekQvje5NejhxXBwRztGLc6IAaQwFULwUQetk/encworYbGgR4C/9wQj3tdWX47hsQ/u/XgIW/OKRNXes2m8q8LKMesvBdf0u1P+vZ5u2/2Lbgdsdyn3MXTxaw+oDnd1gkoIOKTNd6239ff8KydkWGynJJMYQBBIcnHmcqCARbLIjUvclfDbkwn0cH+Jzxm+SMInjjY9lhUPvEUdsPKSj8ebunmdMq6ObZooJWEUgSwEYy7m3pt7+DLVwBqBeFhk9d3B0K/4Q0LagRMgm2+0r27w1i24L/9xGAvDavkRvAALiu8+enQE/vqGJufAuMK9ffC2RAy4xTVXH0LDEVKIVsKqpKAYGFv7YqTNAPSJWLkN6ARmEQBKLwNQ0exb+hgCtRiTYsZ9xE09ZYUVaYUYnexjefjP9x90RAaXZ2x3n0W6TmMwhRu6cuZjZVeRMoWCTTNJk7vla8aeHXIsjdVV5nv/6BP/P2Y9sDy/TutUihykihXdO0dKJtmVOieh/TijEQKDH0ZKLmuoWxiyOQ9xfWJkTQ8qUoAXJhetPPArTZdExFB/WLJ7RhPAqgKFUjaUDpjuhtBwBBHlj3X7VIRU6uw9Py/3xM9/wEkRp/ytQFuwxzWyrHgOagJb/echb5v1UYgM5txe8fu/yyngbpRWqx2J+F5Dba/Frsdyz7q+tFhIn9rZgK1CgZo/oL1nXxyKFgAGjhhIrIgHXSsa2CNegSpUGwUqAN6wFggYA833jAvvS44wC/PGATwJgFf77n1/J9ImKQ/yV4YPqtBB5xdDcDmzqAax9GEGNExLHxGPM3xAg8hvd/x8HgQMiIFkAdiQCwjQ+enX5Zg657GjIfj3pURkVj9w0uzvuxNc5TlhrPiyKO1nNl5LVPRXyv3skAN6+VBpcDkTJCu23Yv4fLpFrmqLfh+nQA+J49YYIMHTOTsuJCgI+ZNOUq+DwaxKAVbzkRc6Z6CKlDSbEPvW4KEFkmEAEAY0QaF2yt4p//F44YW7EMB4NZjNiLhD45dTD99GcBjRiZxvDDL+Tw6x/FiIEX6EROGW6WAML+PYMCyCqo6gfXu33qeTtSb8uiv/33ojPLkP2I6vapA6KGktglKJ/WmU7rodh9+171aHjUxlG/KOqHwjb8qDb88nOCPYWFpbAWqMn1mEZubmCMjo8MUtcRizyINCokC/R5dIBv6Wy1Jv9fiIpWiEcGTGuBC0slUIEJvS8YHEFY7A/QBRV3oIjujRVq2W2RcxInUFMH07cevRnDVMODP8rtCHfAcxdkSltkhaDcHGqxFTLnVh7G18gMtCyezavq3GdjqgP6k35EuVR2FRWVVALJyyTI7Pva2+rsjq0Pe6/qz0+JdhCgHpIr9dEpJawieBkTQOh8gyMSysn63neMJMu1jxIrkI+tUjWHlBC/izYss9ZGCqwLQwiv0Pteq1oohFQxIuA5o8glv5HbYVw4ET2wTMxRgmLCv/LTYamfDmyq0MhroHlBiZEBz/kTOheRNjsx8L1iGMDix+2/4OoHEdJ3fPS7NiD1iTj2ZACR39Emf2iiIJMCPSZJSEeqiWHuuB87dvp2i99bE5uTWPtnCQdvJuyJFwFj/yP+c95BR7i+8Y4JqUJHzB9WzZ428ekfnEOLsi5TwIEuWrEeYr9N1i6fDwWW6YXZAx21WAo+fcD73lXrBN3HC6DCQ/V9hZjjR1Sx1tYH/yCoqQJ4hbQ8H0PAZ55RA4APBz0ja7sQI28pZg8Efq/ubYd0+UKH9Oxv3WRNgngJ2gr4JqkkYoH0tos7V+P4wo8V8YJUTmTMRGkiB8PMCLY7unrO+LCRADSYpTZm2IgbGQWvgyEkp3/jNsu4OlipKn7RCtFCLVBKNSBJoMRt0hOrlkqoAhpDhnHNNHovfTiktsAHnnFRAZEAQMaYMbVznkO/eqqQ63+B/IEYpJS2B0+6vUe+UcgFQPouX0yu60MEYegYM8Li7XCyvQoBAKixOmEHjlgRD8xAJ0iyZNLAGrWctPmrkZkk5bovhKFGDCAIE11n1qAXWFMEZHuO/qgIRALJumuF7dO9qThDoDOjCv6+izbsAQRzJopq4Kmo0DkE0xMTOnvkAxb7S9j+f+zgY2A/YGasKH5YBq4vWjzCJTueLhfHG5ki/i0h7Y8Ruc3kvzHPG8BOyOVvfIlH5iHwIYBaPMICOuzCieewSRbPeYxiT5PCq0AKsekBkB3gITO303G9c8+nA/+jE/Scbwm3TQQ09dARiLxKVrjusabzDQhYBUKrVtIgjGDhUADUxd4zq9Fk0/xik8FPA/FS7bRhwmNcQmiAMKZH/npEA9BjEJFfkpa/BpYCRl5JeezJNGQOLMOHUZlydW9a+TZyipCrjhDLmGdC3PTV/wTuhKQlQFRAw5ahYAEZonz9wbUmWvkccSY8MKbdVWEEvTNDlEH/JoUwN8F9oNg4iMm1DWUjBA2imbyl9eneEORysl6wLqaYdlgkNEumm8vFvBLsdK8GXQ8jpFyiFQd1CJ/PNwp5RI+cQJOr+J7bMUAJNMn4k3S6NIR4e4KqxSA+GGhdqGSx4yafNdP7u5Ep4rGl8l+Jec8iCejvtc0HQ0gAykStQQxicQZJ5T1nsZeUAWZrm+nZiXr/hKLxAE6BVuDlXcAL6fHSOQB0AkBHyTFzi+lehB0XPpMppHef6+1J7hZOf7ycEpkCghHPosqZhDnXC3Rxejc45Sr4TECNVmwAHNGF2FEDSB1KigV6ZQcdkUOc7I8xQ/rvwCd+uj+G/AhqnWpuJQg+wDRKWUVG1Hdalsd/LtMxsMZ/dP2/DnxKYKYInPzdGDOZ/2Xn/cZ6LqV3shtQ6xgA9oMQ6ASCWzzPeEKCLEsI+BswI9TMmg95+t5FTzB+APuJVaBW7D/BbuDqtyAT2MYHCtD8MwG1+TD74YyGckYSYAPAWm2bw9V3sf5vfkH7RX+y3WcYfV8p7PUeAR1xw3TTpvWdrdYkA1zoUkZWAPhEPIqajDWl9iIVmNAzd0FjJvXW23FCjOmqal3SNouXY+tyFAeBbLx8MXbNt2Ay7320nQT6dwUtE5sD/I6OJ+t+/LxvH11TgsZOwRztikMcQ2swH4pZPG2zeS8QbXZgFYK7jznnGJ0yvvlMbA7hhhlyi6e7H2meoGcHzVJgwWQ+Z5+IApjo4l9VRjebUviZZyIACVSVUNerIz1cuXGAQMVSsP3f/KI5Wdew67l4HWS2cKY2oBlsYeCo1ab3KVvEISXEfxxtOGuAXgApZFXGRBl5IADonddC9ewoyKGgxgkKIwOzpXQX6dHNYsEOFBi7WAHISAGPbNkSAEHJhEif7J5vninBZ8UZB5IUNw+TBVaBXZAj5hQ/vFwYivP5mfZ9LxjKsn1iiBDxiXXRhX8CSn9bVnDhMrJA5UvARJ13qLqsM732GSKshIFBcBVfkvtjICKppmDJ2EBCQBfCVUW8O3DOaF6YjWCndQ2egWJWUYQCDnTRikLJAUspHkBFxoOgTA/dcePcd8w+IS1Hhe627Jk6kJ7xtR1TQuNwjamyB9TmozYV9IMVgFiuSM2gEwr3BK7olAqqF80C3f19k/iQafxAhM0CdtCzpD++HUZFii9a7NJrgoRa7oNnArLpfJxxZKuClJEqftEKUU+H2KUsbFc5VcnTS7dHzxKKCBB9ihzyBPKga67P/JQw8u438r5yyHj0arMp7Xg+VBn2EZWboPhBP9Xvwsi6yQjHmC2V7f0CZLGngAZIr8Q1YAPQ6dykfYLUWjZCAFUk7qINewAN7iaRcWxBwuUmAKanLt+hLweIm4hYfkIWcf/vzSyHzf89YMHrdb87mBJm0uy4yHXQSCaRQOH1SdHHng9TaEIa6Yr0ZmPayQqhl5AqyDd+XobaLlvVJ2cgCFTCfv2eHBYaiHvnM1VuS+mZGDtl8UsE/B3kasLCXNo0PunlyHF1QDBHKyY9XefGUFjupQBCzz1+kID9QJVIbpTZUOtvZG5CuQNhu1TZ8K73hjb/OoRHU4I1Lt8yNecTYiu3m2QQmBd+MRSbCaMUJDuITy87+6f1X1rJrL0Ald6zVHqbT96WICTIPgR7EyDse7s5GFAd2l1Vz1Wmu0grJ2MyJICjkJc9dM8usxKETecvYxRBwFEyOwxojkXPgIqgALJ279Vzo4jdGjN3RZYeO5+HVikLcOrlZ+X6ZZiX3nMQYhd4C84L43W50Smnhot+UWtsDsVaBG4ApXya7FY5IaB/DNcvMf3nz/ekIYi4yCfM/O94fHj51yrtuCYgCok3gTStWmkkWczm4VRPaGzJzVNKl63dAE4dbMDNE0SAfmyUEwpO/LszOD+WmakVqQ3GA9gE5ngmBmjjy+Ny6v5nmQVV9OW8bkCUVUscHzpscRoHj8mtepP9lKhEGxZGtaB8ucKMSvTeC0BcWPhlL/Es2S3Nw1Rmn6fGjQL+uzGuvyPzs8Die57ktogasC/d9bXe1dnVL1La1NgEctzOFZHPEdGHzm5p+evConB0n82tO5/vbLzwZ2L9KPQ5IjdZ8+/JLDPz/rguAesnyiCF3vnaiBJQFCnQZkQOpEiSib10ujwlG3efcxsgti2wdQ7YFeAby8XO3J2QGwjI5fv0746NfXezO81M5FJJo4eUG+7fDi4/Pn8Kc5kpBKIRUi7LN858bO9FSS5fyKZN34GoyiT+fyUUMYu0YTIeO1AVp4OV/6InH9stNtyvsy2rks7sie2fEBlfSasU3HYSP3bdeV5s1MP3RP4euDdJCWVl3iF9aeP5/HgICZs6PdbTfd7ylfmXyG4Zon8QWxp1ZvqBbLiRWjfPT/zSH4L5PeDmZH8L5Cozr1yhN4ZfillkOSPsM5ZIlj1rs5F9qPFW3bh9kLvvPsq9F5S1UDptC27NDQLeCLgXyOgltLZdeTdPJ2wf6QDsEMIBQpnZR73BgptXvPpLfnSbV9EThwD2KCfzOPj32Qpfzt28agBs0/hWmh8nMNxFG84coNF16Oo9kJaIH9Gjb0D1qgfPu56+hnhLWLk+IygnsuzJIdKGjQO05oe58tGHvxL7Z0D+TGTrSwAGs+UDr5rdN1T55B9dDyhTyBBqKaLqvInOW8KdZ8jojaocISJe5f2jb0LK7X/G7/Mfqv4kyO9+xOvN7LZPitgUedub9zHde8/Nyagah/izfzn7M0h3vStCZs/hYLyvsWTekuu+VuhY5vsGwPLApeYFy0cFkAahILtWGRzmNV/roOe3P8lBtn0E6eQCpgFA7MDE37OgZvbMiG3QeZc7+8Mqy5CTdttp0vAgzRwmwECTVlRIA9mMXdWHhMqeigj0aiWQG5rexz6vM7n0OqTMQzdva3tCltoMCWg84IyQGt1mZd2d479lZu8ZuAv8smf9LMiLjz+ztAyIXxn0soZXxu/PO/djwW6juHlKL7cctNRkk8eMMvT4x1pYN1Qy8on5oKVlsWQtJP5Kj2CPfKgMum1JSCRyGVS+Q+ATPy5vgHxIbEppqXxoaSloyYjGIUB8JpHF2rSOzdF7NrPDnxD4Hbf3ZxD/hlgXRJP0Q0Aa5LZcL3M7LwG7FngfD4kDO1asMLBuTO9D16/cLF30teR2y701gBZ3MIhpBgrJsGK9xP2+PQwpzLZvB/bVl2O58stIRUg8tBR1209348yXYCzLXhvfvL8O5aZluF9qnCjDyhlKjuArupunJCMvLwW1A01XpR6t1mimgQpFZWSFKKOiGq3RATgQdCx69/aVCDfG5X81+qeu+x9MFxGZdivoAFRDsv2EJO+S3E8uSP1FHw7IJgQ+bcz5NWW+5c3/v68SEFF5CPI30rtXPvJoA2oWPnop87NAizcG7UKkQRMXfvyjPF78pxQEqPcCUa60tE9UgzqHNaTGlqfYRc9/3oj4ytLhwaCy+ZU9K9EOMrPR822X+7ymrD9H8veIG4jYrjJo/uUQO6BbvvYCc26pRLqgXvIbxCYEbrjZP0rd3wP5G2H+OAT8CJH/9Fmv83xfXve1koXiP8lD/6uIfV7AQjCPYnrr5KJVFi80rID9oNIHuGQSus4ov4LSIeER3x5hZhuPX+Kx37MpcxfdD4Bl4MROxZQMGXQH8RDsBWErXc9IDYnKsuyCxk70z9wQ9jSIXewSESlqjXE9JM28/naQhLrg/0d4tIcR0hTItOFwgOOGSOuWYohAXKKnr3NA/c+Ykl0Q6CMrALhOjGAodSRYpkQLzEim7FfjiAQa6y+XkeNu6mE3u3EVUtfb5BcBWAmm9+A026DgY3Q/jO7QWRgFpIRZ3up0EH7VRnyLYRdhAmB0MpJMLGXdBaR2kNkgRrB4/EUAHgEE/F6aUKe9mZO04RKURd0dG7Eqy82SWQi6lnDJAJVdKqdjeU67fbOPAozhsOsvwETQkdmZ9MlocySZCOm5uaANja6CMJC7WvmAKvIneuybZQpkDhx2x72uXr0+H385Czzj//9MOgyhjMCMglbh2oOpvq6mhZZNSIVzK0H1IFgbeqS2B2fGJsOzsRAJEKAYCKSA/RHYO1f2PS0CEf/laKqackT0/zD4a7Q/TgN1Zrt4/nIZrfV9RBqVwUjBABAZaRZa/FAR/l+/jqx5HavDOUdc+AMCGvC6O58DffbdRvbNjLFFMEcrxgt1wNIY6hZ0d9EH1jnQVR89m2uXcZJWemWSURjXWjMV1EzC1WiomHCiccWpxfxZ6owtdg1MmUzuat3w0oJx/OfMvn46IIA87/ho7ekRAljvmtC45A+Jy18qWWy1eHdwc2X0AMEDMFlrYKMuNEeGwmyHBxzEyfZBbv+fpGKYCV4yVFMbW8ldr07Ssh12/QUZ+Bhz4J9hiun0Icl9YoihaJv/REKJyirZS2vvXfDwto+vSB2LfYsr4Lj88qU08vAL5WFkbQsNYP0XnL2bU6mrGzT0n0FtkKCEkEDQoF0IRgHvzBpPSvX/dcU/rfhv0fuMAC0uFc99C3fGDS+CSAIOSFXxQ2HoTvJQhJn//ev4mb9jzoCtuxCTgXfdpbo28H0Cfa7bxIAeAuGNlcwOg9ontYZOYUJ5PGn3A3UOcPAa1nK4ncSmGdJoTq+JawMba8J+ZpEd9HgOglER9EQjjqJmW893w2j4FxCXgn90bhWIHqABdmVRL/k/tU6UtVaB+owCYJO3nKK0fKOUs+LwUCZ0TVvL+Tape7wBlgwfpHb0MOCMvgHI44eJ3amBjl7zBqd5QJzviO3npGoleTTcpnzlpcqLtC168QtedP19GV/9r2xb6lYfyNoFk5t4nwubcCd/rh8wN0E/rUigV1G1hbQxKQIXfro4M8DAxxVxvNRYvDvQr8s/AgR0v6KMQgIUi/b/+nVo8ZwP4Gf8CZqsunYUVMtu856Qu7FjEhlVgBKElWjDcsZNNG2NlR7ESEr0x20JQ4F5cdRwdUKFrYhow7gOIE13I+dhwlC9KJ1GiSmsPI42rCdYiEPkIOMKE/EqColh+m7Va+wHGLSiijQeN1FHDUQJFDkIKDFMn2/VDVcMFR1QlmmFyAFuccSg59cAwoSh+iobmqNQQvzH0YbDAfLqYF0YQniFYfpJW6BFuVRmP6CLVqyn2G+TtUsgDwWWGaZPxm0342rgp0ofiK0QLcghTKkGJAmUuE2G6RuchdDZivh7gNCG9QIn6iamRAaeigqdQzDD9HHK7um0jghk2mnDuBEiAycDJDTuHjNUr1Zph2OElEu0ouMQpyRliESKQh4xTD9t4BrrgIomqNGK5RFdiFM2qHJEaamIAsP1LokQlBSRFeKJeBQ1GWsiVmfUzlB9sx3DSEyg9jjacNYAvQBSyKqMgQEFEsP0E/ISFLMKFQLopBWFkgOWUjyAnr5QYJg+zji2VUECoEqjzQpRT4fYpSxsVzlVyTNMX6YI2xgkAlTa8NS3y2jG9UGc72aYPnZMq39CRXeeNoxXcGvVDYhViRmqV0fp9UAk4Wnace3bfYegDAExw/ST9rmctoqF6uOUWrcVyhk3UUMCtpQpKFI3w/SdVYY4Q6yEpyjShvHDWlDuYEXBGaoXY8IBJTDcRRs+06HW7ep1gR8xJ8m/+2sz0AQMA9YJuIpY+vx7Zrf4+79DAA/QAQxM1LZT4GPguIdocAqr1BRhApq04nf+X5u8s4pdEcDcxDcL+pf3zAD0J706YHCSi3mJvJrpLggYFzdnhfKDOiodA/Qe2M5QfUaTDWMC9cfRhne+G+jPIVqA0Kg//e43IFB7vdA0NZd5hmUZdnuIeDdS12/ZWkFgmYqNOEJc2fQeAQvLPQQaAtF1I0EtxKfqq0EB8Ujj0t9CYPdMhDxC4ACBcFTzTVcAFWlasf08DRy/AElTd5m+9y6BIWgQDAiWbjNbKkcq4rnQbiPOEFuvwtxrcN5OXW8whHwOQT2BQPLriDnE9kC5R6AhcFcRTAi6g2y/qtNhB3EzXN5FrCI2eFy65xCUCEIHEYAwR7D2jma2RogkqG7ODiv4GvIlvuxXKfP0t3UO5j+fOTWBwEs3Nc3VXOYZlmFVBp0dxAliH7F51uOp6A1hms1NN2ytd4Yh+hAX9pEuQqDcRLAhaA+yzXLVjCIBvq/6fn4GcYxYRwi+JjiaXBGCfSI3N1O5iRBFOCH0VsKjlW7HEBlFgBIfRxu2fttnF8mB0p0XoJ+tcwB/4WMDzUAXgv8cgjznQqzTiNPL74uYmFsOeOq5sZgHgCi36SAuG9tHNtZdWv/K+28UmQDpdgexgFB6S6QemzLlMZ9u+gBweBIhhZC40TtaEUcNF4RKe3O0YfuHNUj6reyzjvnaOgfyEYFZ4NyzlEMEhImYFMUf7iDqEP2X1VTzhgAYgr5kwUg3fW4NsXNEYy5C7tH7l/paBLFwT0VYvz3hCMfHS0IOYZ6hHABAmOsIhYOjlHEMYgoqIjJtWE9wqHVvWMSrKCT62d9fvN1HPGYUCrJGYdj0Jq6cEinG7DOPY5hzOBgeyZz1i/Z0noO8K4v3IzQQ+o84emxhThgUI8rFmfbRyA42QxH+XVrxBv+0yTv3hoAS/exdAiotHoe4as0bx8PpKLW4OQOIblbNH7kE2zp1cxpkF/osQgZh/Oipsh6b4wMxzLYrRzym6zjqpoy8mup/poBss0I0ir/gOkUs0ANFnn72LgGXnz+e8eMCYIGSdZWUwpWIESgXcOTWXhOkN0MyV7fkA4Bw9Z99DIIvG5PnRYxAPQZHetfJ5nDekpsqMo7lf+eW/pI2rNDV2l63hahMP3uXQNPHo7oB0jnlTJcGpmVu50QqUSpUD3WMVXCOXPrBW8JUyXOQali2ArnQFaQoO4sQ+x8IThGLpYooFBh70Dvi5VYQFIe44GKYIr7paoAqaVoxavBT7MJVhnvqLtPXIpAOnqlDrNTzmBsDQJaZBZFCrDyP+hHGbvSOWCK6+vZITIP0fGfHhs3Dvk4CcLYQqv9RFzGoeTD7DNNubB3xyhM31nHtR/upQcxyYoAQ9UNFO0zKI4oxmAbpp2wMpPS3T+ytWSRuzCC2Eetr0xUlAl5tImIQjddtTlLsTHclhQAgxjMI4W4EANsziJOlI1b/+0TBIlXqiAnEHCqVTtHf32OgeuBUy+mDR24WcaAvIXgQJrdiAAsxwB92dABjuzFXOuKlXHgWUoSB4e+7aMPhAG/3puuvBUJXTl97lyB0DzUViLXO7kABAAHAKRWIqbPXLiEObQUHUWPJNFLJ6V2otlxPLcBhdKRyW+cswFNvZmzMQMyifv8Unc+vBgCAXi0d3P/I81ucjhC51S+80WPSlE9bhlYuUuyB5uhHGbFjs/oBqnQoGG0Yr+DWB4VYlZj+tnuyolBS49JLfMfUBQBwQy2sXUC0I6ovmyzCgX1GsXkK2bmGmBFboTXI93Q4UueaSyqBW4jF04iDfoVTwAqhh7cRigh5Dvjio7fXTWneHGINMd3sOpVCrQVHm2qVXg9EOuYVaUXHId7uOw4CATH97V0CP3UFsQvEzqc1/CkEFMiUe4ZnRHOTA4IXQtFLIVztLG/7br/J4Ii9unmaExqTtb4mKEgVW6tPvKuFY+HTtx1p4AX1sY6v9frsKGPawPtgX1Dupg3nSThpB/jKyhGl1bub/vYbugisrkrIL9/xIXajfi1iTQ8Dbrk0lkKA2/WhBUf0W1PLgKUe4vhSCLFH5961bmGEOPdsi0kDxR4WLDjqzHMVQiCit9GKQ0FZjGWHiNUZtdPnujeiGicgthEn7b4MAG7Lmzd0jCjraxFNHUd+dtir4LxgYaEvA1Q/+8UOBmDpVrEaw1Fqsw3jc3z5X9KGQwDMCdrwljMEq8GAAom+56QwAKv4n5bvg7x06ZTfwplqwfSPGrSs8Dxc/pLQmBywj+hC7FOKCVdubB39zBXwfPxUB604pALmInK1Vbdg0PCaQoF+9xO1Cc5xau20J2SCrLJ+ko4AUHWvc9QQFn0g1s5nQd4GovmOghO9i4tHPXHG0v5Af2WjzQ6z858+Xrt5Vz8PslZh5+l704d1i+LWziMYdZDb5F940hMYViysHTU4KzWSNQxlsufuTKoYKCM4No92ylwPKEGiv6QNfztbvynjddMMwwFgI2TGqeh/D6fmAEu9xvVFkN9CyN+c0jB6em4sOlowexUJdU0mpZ1Zs3DOqa44yvnZB6jSnacVF0g8PvN2wUaD8y+1CfrgqcU1grG978YBnp54uIxhWsYGfpQQ5XySUjBlAkA8jhHMUp8d3WRcsH+/PlFO045NLui9bE5wtR2CLZDscst+KF0s4IwdoYt4ZPbzCkaw4p4G0gVjAkPBy0REguB5sTAdBIZ6lMbh7gS5uVTOaWHIDdW3707Y7k7w7k6ASSGYLoErEvRQIVTagSVbraPghFvtB4oEnQkc5zwe3WKxVQ0jCAK7gbgqKBihCzGCgsdzEuWViWoux3glyGe2Bzw24Zo4j5OEa2KoR2nBhrCNGm00VQ373rTbCn1areRqp3oyMgDu/Tpo0Ac/p7daFs7ajSCuncywggFIb5oxlHtpnGcvZ6HnNkPC2Ayn0pa6LmDV6VpFnrsTACu3qtVcTot03eXcU7ynTy3N353g3J3Avj7Rom42R/IHDU+CSzJs35NvSGLOq4H6llwDWZ8oubjaWM2XKSr3+/Pz86Vy3xWFQvvS5NqwrSoA1aVchDEawzxYtVVu9W9ks03daxfqp/czy22fSnPTZ57FWPkOwe0+P43x6512sZIaxzEcK2BLoLfRijfNKJar7Xg6ZLJSpx/WW0LhOH9fiw/PI7a2Cc2lWM48f7+LaWcQA1nk5hFaU4Tf/bttT9pfRYi0XEwDMXR5R54IjcdQtN9zHJ/Xg0wh71ds3QzD6n9EmCK8EdYIoSrjCdZ/4sw8wdtGLH5+hRKksgjkz9cJAOFbghpJCBFGLyAwGebCR53IyKP3zxw/WWxqUaQLUDxFLewjJhCDmRrABEJlojfCzyNaEGN5VNePX4lqVT2KABRPqXTGEW0fllGlpX8RIhKRiRnu1gilZ36lgml8GKIXMVmsKsWESYsK9y9pR2U+hf2QQci0TZR8kVuygGg03PiAvdEhlKZiaWV7DGP4iJss9NySRpje9qi0YjoSGLUTVOS4O4FM7KHjkaLdrlUAL4Su60uLq82DUxfXcwmVXipRwCv2+bwDZM93CW61pck22L28R1gWIJEdnCvqmFtNE+R0s7PrVn5Q1UCiNX3n/MzCJM1tmmIE98Y6mbFodr1f6VRAqtq58JIPOi3NLB1/HiPVTB8H7O5mH4rcYI6fLZpqIN+ctgQnAFdAT/4f/bG2ohIo4vsVuH1twHGqjEupMmkp++4EsTS7jv7/iX2IXQ9P/q37J/QEEuzWRB6wFGrbr8Daa4LwxgAkGIFG0MrFsmyFa4i+IuFFlUuIu95bvHlgQ8zUr4y/WFM0A+ItqqhWw0afD+OEAjHTmV+NaM3pUlJo/mmuTn7KNmuIyB0rp082SyTFeHs+3wRwnKzpgODm0v0jwdcjOBDsFuLc4DIAULDT3aL6XxLFLd/cquEATnzJ20P3ZoBBSp4E5lRTNnUXUasR2gM/cdKrFydtTwb+4GL1gxZCJW7mLPp8pBEnQ0MGa/vzv6+bkjKO5X/nlv6S1iz8gX7ZbfoEv2JCvJZrBGY2jwR3Jxgny2wAciMAes6DQY8mSPqMr3o4dbejtkBSOyTlnj4l5PLyC5D4UXi12DFA1vTUwcxy3YgTM4+nvTbIi1j+q+taCvqmqwEekEF01LMIgd2L21ieAFG2mvq+fuqJCsTV0TxvmBjs4KEdIA4+W4B0q1AllZ+5woRMyWmWHyh7IPPSVd6ehnhVEVKhAjJbCJ1XgP61QBYpZ2tc34WXGUgxlxNUNRcvpV0hMcdMfbNLfl0K5e16R6+W+g4JOjTTYQnxQGnDJixnZg5isMfcgYEzp24jVJZSCILs4RctKol7AyXKhSAAAJ7MqfHSci2Fj6Dgt8Ft6UKC13p7BN8UPlcC9RSMYCAIlFOMRxOm2zGJjCo2xscxmDJJlu/ELbAkIOBT3tsAdGfTAyD6QSOwLENhIjLD3TyBNj97Z4zHz81ddQLAcmU30xcxWAN/TsVFvTMI5eNNkSJE7vDWNhC5MqhXKsHQN8vlcrNkRrAa0ni5pgMA3CgM85UhaKVc/7Bl4sB58FlNENTGB30bJsxuNXHqcN/HbF+rJ0heHDX+jHtcJoNpoXkERTHjRS1PgpPyzP6sppAKmQ9bK1SzJaUy9ELEXKVPgEvBh1nxax2sqByn2CcaIcTKM59dwwHM/0eE5PEoReiLLU8hWbWXfNDCXENVhJk+84seymrAIG54L3/5wq4dQFQ9uPo7rnQJ+s2rVZ0wRAx/BcIaU5p98jiu88cRCdsYpWInyDj/zvs9jgE1cznJc+PmKQolhCmveGXboLggMzlzqmcyAMq9SiDGMg0MiPw4olineWmLD16mFMO3X9J0WEyw8JPTHsHsPo4wQOjdCEUqiJ7WVSAGG+/6JYj14aCtUGDVpdUbN2YPBCRmY/xF7aAUKSDc8tbFJx8qljGiunW1RPDyc+MYPcw5OC8/18Ak6ttajB77fZeBtRRPiRtQxZLgpjix9fQk4NX6xpgqgGi1p+eW3RIfAZD5o+1OTqw7Na8CPt84sQQyzn3JbpsgzNsI7R9/wgvd5BPhce7hPGXjwxBZlwZAFrmD+XnTTQTP2t2Yc4Eowod//JF5ECOi5pUuIQUmzSZENfFTtgVYJknx4geKxXEiNFMcWixgaLPBQH9/BDXCnclMkYHknL1+CAwzc37yek7mE27NI1xYXtTkCHZ/948SAKD32I9ffHqLimSr9k2L4vLTiNLPv5NXJID+x2t7p7qJ0M5c86uCBOzgBsITIY0B6K82U0edtXZDRbilv2RwLSIS53r8uEcJkZ7adLRc4mkVD8O976q3INbgkc1DDRPUfymiN5/SVC/vATbo7HIH5FTqH/STGZukpa8UnZOPPTVfjZKquVIH4s5ZRM1LVAqSMzvLNw5cFi9qNb6rxEBy2PrT716KMLk9BFrKWJNrBAaSop1BtmCUQDmLH+VA0EWKO8VswHoGYkFlMcF86ZkshpuIXETlT8xl72QdiIi7tTrIrF5AjH5anQTgOHsI1R//TeuvzzcoyXQ4tUCa/KD9aYiRTv7kY6eqIm72/lebECvC7SOermKczVaqGNprGSVyIQl8RTPQSnAJKV8/RX3c8qUndYh9efLOle4IoW+ta3Fw0xMHHZxXm0Sl0iz6+yORC2ARQby+12cEAFAqjUbj9J3Lc4gbnizFqQzOaPj6rEUbtS/5IBvibb2Et1hM+y/6gA2XcqlhQhZw8j6yBzCdffZEoDH3rm+CgpveuAIy5mc26oBh3UVTPtG6FSocQ/2NOhoOP9HxCJZPt569smi6EgCA8zsvnr82XugUlKQodQc4a4dDhtzfv2MRKJXJ889CBDHPrBk4s1QVKWHqXiW1yhKoWxWdX2UOnnUFxw139+QAvzHAAGSLcYhWnslQiuFtxEAV7XZAiGc//dhWURoFy1frO1/yv16DqTfngSdDv2URxl05AFSVk0BmP99wIfaKTXF6qLkiBczA270O5qrsXleBOfiwrygUN0DV6mlWFnWH1CpF8j29uGMD/vqdbhniKnrFarVl6hKwVrCzsfHi7dcCW0s0PSc8TtLkoRzirRgcZLRrHk4wU2NJNyvv44yr5hpd2SXKakg/c/G5fgBY6tmo231yZfFnaoRqWZfLrd7sDQBr2JM7KxBnYZfT69VIZyCkAIBSed/1VwD1TcHLRYkVtTjgqTHmypOAnDJZAooDiDSRdE9vUdYIthluVZjMybfKHRy3OdrvQUKmNsGRr7lqVhRcbT+vR/ECqHo1o7eSjYny/DxC7u2RO6l7CeU2fQL32lGSyFwJuASTJdtJ1ngHwRJFN3PzTrWG82oM5FV3Px+Ritu5nJfJObixAfhg7PohJKJntLKm4rOmLqQAQGspKh2czLoJFLUMgu/rIpX4FQl6JJIrAzgtLytrfMp2zsUcveYEON7W5Vr7KBeH+Pc68rDmwayFoTDdmDQTAqgxbPv97smqGwkhBZh76+JehXmJo/dJFTUHqdTyKYnpkNwp2mq5TfUtL7suc/WRaeGoAbIrPg4olUWED7GA45Rva/dYYgAIx/XH9h68crNsSgLwFGtqQuMJIyJKsP1+Skmh0NOGcxWzNnMJ5uwRkIjADSEb9QgyZzdLeQ+whd2Bo0PiGrVC+vkzxzcP01lHCBLo5mGNVcxEYa5HsIzwnokosyFjirlPZO5edwnUYrLFe/HpjEdxcx90i0Fis8gsH7/45JVNXQrQKCouMCthKMHj+j0TlR6QKhJCmMOLdIVgiKRg2uZqB4jM9L0EAwA3vbW5OX/z6rrLCAB0OlOtJYhwPZLn3jN5PwNzKkGwhOI0pekkUJJDmN0tSsoVB20l4UbmFm9/31eulPokYTh3xmmCRJTE9XsmQTrnBOay+AlB4JaS0piEZNUpBfLhmbmxtpcMTOunF7/lha9kAgce+8lOW0kIFnEJ0SgftRSCriUAcwWhYqU0AUkuQHLYW6cnKskAAHrrzO2vfFClOND3G4iRICGAAZGCGOXjqkGIzASIzCNEamX67dyPDnhyAEB6FWEXugSwxhBlHSUhjiHkqkVgkYgb0xklGOweE0Ct8WEseczWlc8aWoRo5fvm4RgL2yfoJosX0wUQuX/Ph3LL5xjovNjOiGQBqH7Y+y4TWO/ZzWMsvIAUOXHTNUOCHd3z8YKBh7OqqFg8R8PhBNCkgeuI8usEaF1ZOsaC26Tcihm3UCF5vp7SPIUTdJE8a4gqRN43TeM8/r/Q//8OOh6RlOQZftD5NR+nHaQjUQDqcYIeiVE+L68SqitavKK+T+JqauMWQehRsvBpxPKv/ht/bqGGAX28sF9PnmD/2jjBLDVbUQHA80jmqN8gkMLipPUCCX5qU3ySmTTG+77nb7tw9sIuDnzxYQ01aQAakyoO9N6SVgDuKySXjfJZOx2CHpar8WraBEWx3NRW8XDgJkv9uz7/w+r29p87b3AMtX+ynZHliatMYAob+2NxGIxZOCG0nF6Eik8yR/v8uSGBuelswqgWCJmESBE2QSQJ5Y1vQ/R8tgLt12LkfTsWBoz69rdFcryAUA8ZZuHb/uX7xqE9reAAXIcVwbYIkTbaZzU6BHDXD+KVDgjTdhHkZiw1qCTTTA77uxBF4wDgvSmPn/YvZ3BcufOjWUsGt9+NMBOzTYhjrSPB7EdFUElONhrlUzr1QMGZq4vxYdWVNmEsWIqBe4SoGqUEq6bgWCuXHMby5TYAUOPS716w6QhgO9udGRGbpYQapjlRjodleyTGoIBeoJKa5igfDwodC6fNrsdH7x/6hEawEoOnUEJZSwlqwcLpzXJyeIpBYeTCP7k20MQIMA5fnunXZMmgMeUHHLDhVD8e3AOyZ9Ai5Em5tMZG9wA6d2q4aHGzH8VjURvzCGN2KwZfBULOTQn5TAXH+q1Ql8U5fOEX4XbPpmWQyoN3/bCmjuGAaHsHbt+MTy+m2sDDaekq4/KViy7JqHgFMF6FywKBudn+aN/2iQEhPbFajsd8OAQs9zqWGYPlU5xeTRGNQKGYsLyiyRJOvIAwxn3J5+fiQtULP/kI4NlGBzFvxNSuE6Jyth94smVXIpIVJILyqtwUDI4RbhGBOdqX+aRpHLgTv/YgHlfDAKeotidiUBTAR32NpQJ7u1DBAJRny/Ic9ABvD5S4gLdw4lvMEAN+BzGoVmKpTxOYW9zcqMhW7roktZYQb8xjIa9gwJw/GO0bXs8M+AghDv7WfCjk6hcd38C1MyWINWhTHItazSi25qGbaNQY1gm9K025BC5fjxNYC7fSKxQD03eCORHD+B3b00cIduYFRH2DypXe1HDcag+tAgBv71QIq3vyaKEYNcvvboxhAIr3H1+KZBIrewFgKdQvLcbUrnOKEXp6yYxJTJ10Eg342BjHlRDsaSGDcBZ7gB9sG3GCGeORc0JgVDH5sUCl7V6eVnMjAK48fnDWlkd3pvYISq1eMIoAg42AMLvuMhlYqRulHOpRghCjCxAiNGcnIgyFT/IRJdNUDuGsP7uGg/nnXxHkqZicxxCxfTEC4DdkLwUxsOhMKZ9w2h++ccXFFAxEEJpMmtB2+0FjcsuHQ0LDduLl29UaZRjh8JzGpfGwRFILH6TI1FvnNQVnZ7KQmE89uTqF8azP/ujlfExueNP0CYKmCqXtE0Km8lGF6Mb89zEMiG0bUXhhnMbG+uecmo0T62+H8qsB0mISX4lIrjLcD5QnYxClW0pbSbjo3NU/rGEMHZH0TdfVmOZbBRVj1HyI4sUNr1MFLDPdkgHSqc69kziw9xGPa6Yc+taVNSDm53oJMr/3zEk6grJP+6C/e0eJQRyu1mxOApoirLpKinyFjiaAXvy1kYkB0H/0H/4N1aDSBKt2n7QBT5cO3xJRAbF/JSK85eAKvbmBJUWEEw8gNiEJ3dUfCtkIcL/tD370mCFNRA+Ua4C1dzRIwOW5JtVHADTXLaZIAmVO/xaO88L8fggiFhGVN88EBF4b7yZISBH6XykEAIAYuqhUSkGNRge63+8NSUKbvT0OqdcaVgiOqRjWqALbWzXSBLV+4iff83JHWnXzwfU7AcF7aGlPl+EmwqK0grMOzyyckMCqD5d22smgI7gRRlTDwPbpf/LnXqJQKd29amDgCifmE4GK9nYVJ0T2sC2NB62nAoahdLr7zBVHV6Q1J/6HP1AI7fpML0FYFeF8RceAz17yrq9C3VtzWpEgwof6mSAVoVbrwSew1sR0Y1QB+ubsqoUD6Iy/5/nxYc02FI9FCEiY6zWrtGIBcfnRdRNknHr43HEc9K7Q6e22SkFEYWml69YUSEoE5bOlKYqBwun3/CeTBdWjI3Rzc6m0RimmUt+YSATwxqyWhYtWwrwjifqwGZoYEPpWr5u9OlZRVYMD6KbmNE8+//g0B+JCuy8SBMxffmpRx4A2/LSXp/odWN4N7AoHEFrzcMIcQCpWUK/3rCoUI5o3CnOBBZHODCU38Jz94CnNJHDPz5z+2Mtrr8LDK/L8yry/IdBWeWtrfUX1OSXdOXUAcva73/ICoX91wkGsznUoZU5vdna+oNDkyL0qv+cuMoHh3u6JL/60GVUZ4XSfWowMCthCZyZKCCsDmqKPAL3kalVFCsBwsNisYoCCuPWbvuVj12Zeg6s3594C5pTSBw8884DJKelC0IdE1Se2HtcEBnjQ+Lv/a2E3Y3CIuhcfemFZSUmeXbE4BopP1eZmbO5oesXODQC9WW1xAlAI6jsdxJNqKbpp9oeNugfkyg8EZlmWyHz3J30cixZXT3UdS4RKsLZhK5CkOrwV4rc4wwDkh2eXa4VCgZnZXvq7GoDnyksCBxKTixmuYYQe7UW+NE87qfQsDAghTL5Tywd5W+3nqtX+0uYWkDt3aCtKGJGbfTxPAEXNzA0Gg4JhVntLExMWpOjM6QrObD32dNmlUP+00ws5AjCVTeYouHgGndNRG+RV/uODfRMDsHKwV6pyGnmApxSESDjwVrf2dAIAUF5fHmPVlWYZyLXpNcESBCpr/UiMAKie8j0qCcTrAHgF4M8FjI4AgCgHANyyg2xVFyCVVpYvdyGB6dINp0txWK4MLafvgAAAUKnGUs/GCRuna7M3syb1BvvjY7mC5yLeaXlR3C5ds1og99XWyZ7AAYDuhoJTgkKZYIkH1f5JcKSAYhigR1Ek4dL/uqpBohp2VHNwTGNFlUoC9sZgvT3/yyETOCyl3NN1kOZlxif7iQQtVKvBbd0SQgqlChU6w80YW27quf5JbRwACDfSucUF5A6NbK5jx8nI7zfKIHsr+5TQJQjGgMj52ennm1ESQGul4uVJsXP7egFKkLBUCQYlAyP0XK+mSQPNCutzBUlyLq9lTAYJzdBi8Y0+H7om5VIkd3aN6qqGoylk7PRGR4IQAjiMJlI640Hf4kLEoZYZMPnA3AsXPUpxEilV7AvLDx+6yQBjlShyuRByUKrWz3uQyEqmdmDoI0Cs9GzNkAYBmkyuUbm807YchcrGuZWZ7LiQ4Pz1lkvYK/A9oes8NgpG446WliBSR233u9Y8isNSEKMIINz+9T9+oZaN5DObV5f+yTAOjsuWGYiY8pOfdOtkMYySAg6DjTt2VZPDal94cTWdUMD17WUNAyDWS7UYQEfbLSL6/X09+10ZX8gV7LzEzvZEooH7hqC+PfCnCyqLzTixZj9yClJx51cj+hsVSeCNKgCtjG20M6fS2ZbG5InCWxMFxIku5AIrhGB52g+lUKO2PFODNIIo1PTkgEFl2FmfKjmaNMUfWx4qmgOJTZVxGnojhHAXwTBjAG/Y3h5+2ok7ywZn0igPCtP1PM1CUgZWMDfTdlwJ1MtvjwcaW2ympOD8b/uXlztcAqWjCwCiNvlL73/wzM20KQ/AxK1bk6EuG+iNsz8Q8KwUXslcvpZzRdMQbpKAcu3fP/6LLi6mpan589d2qgwSvXKtagoGI6MeLwsvBgA9867/9qN/ckYTkTTP2hi/PMY0lhxK/ks+9rSylJUSXPptf/DQBSFSkld4V0TEH5z0RjGAejBVLG4tTfWd0Akjo1Kp5JX0A00Npzvr6winK5pswF1j55vcqVI/1EFV1enpfGt9RQfY/ssLbdzDIYvhPRGBjo7pfNeOPMDVic2lYvGgnAs1kyoVOz/TVmZPaSDnzP7/amB05yvloF7tV3/DVyDcRyI8EJ4f81kn7JjAs2htDjHxGxBppb5TzYWmZVm+PdyeHh6ulwTI63/ULUdgMt81lAcodbY/dmppql91IrCDYCazNrkfgvz+wvkPwjnpCTnotf9XJvzoUJEBqN341YiUT0Skd7uOaLcHbXd9c7QBgAIIbetUs5xr5TS1lh8ovHowtRKxEeAeriOyv+xqyOQCWjj7T5S+4+oMPEWpqJzByPoH7di42F8C8ecA0O+eXMnmqg618oN6oIDc9bnzQ4zsO5+PyP0ziET8F39SQ4kNgLYXPvYv//utZrncyzkVtRK0M7sNC+S3fhskoLGAGOoezJbKLRPahcGl8Y4BACAEx3HOJCmNa9+Fk5muIfIhztx+yf//z1/shBHzfcsPNTH6MPI5M4x0nemMe573Bz/p8v6aw3EAxspV9wfyllwkC2aoRUwA9zxLtTxM8jPXcXWdMeBcUXKRbCkyit0o0nWdcc65YvkWzaGwkRZGus5A8RTVV+gIEwycopqSUiJzXU3TwVAMw1Do6ESMy/V8223PqQTQisWlmbmKJ5v3j+FI2NJrOC/1jMYqxpqrawpOOFOPFXY6Fe9oxY5lvU2w3NE/YExrgB1hACLt6sT+cv3enJIe4BTVPAYAqBWZ04qCE3q3a25fujcnG6k4td0/FgCohybWKk4/wgBE2TPLX83pvTi6gatM944JAAFoi7I93CZU5v7ytC7gXk8mV++gbXNcfqx0bABQXmO+awGApyx82mercK+nk160BlyWrZPjgPfs5WMFAKJ2p6KZAEb+D35Yld37sfTgo9PfZXEZ2PxTYwQjaEfHDIDR88Tyor3/55YtHe71FE/dTnd7Y51BTNHV6kAlLPgtOJZwmRsTw7PvKeDeT7f/8IN079Z0YWD7ipTISc8rgKdwWdGOKdBz/s71Tku/F6T47EGfu70HJ1qf9GljCslNf9+jc9Mkfp3rxxSABzN1Q8C9n+76Qw4AC4vd9A9czwwHqmVomlPtHTzwZADE+lzUEscWADTg3lDhHP/XFozMLkJl+/rl7Xq+ubI1tbne14G8813rcJ9MUW2uOOYIAFDUwaBiKWboVKv9iBGMRiOTvo9GBGqrqQmMzH57XNXFfTPguWoaYfkR81o8pufedwXus3mXAM3nn3r2zGrVlam2cGk4Yd53A+C54lc+fPug1Dd1EDEY6qC+bTMB9+m8SyD97Nbti1+51Iup0Liw0+oJuK/nc+GtW7emtoqlrBNqETUMv1KoD1XodiO4j+jPStDfApK3ge3kXrfZDHk+qC1v3FlW4D6k/6iabVU109Wp4hl+kG+a9yX5ef7flkjw5EZCFoIAbAUoyVc3sqaQxcVEawYoghhhdE0HD1koHFX9AAUhFLgSnP8JWQj+UVQClJ9LcliV6vFCFiK/rh5kUVASQ2om/K6sM2QJ/SuRg5CGgAYlXwVLMHzt1HEUtoCdE7tZj2IkKDmFwUEpiuN2xMMW33Pxn8jbnw1KwB9u0ZwmMXSZkaLRP10d+HsxCHn3esCDJrgDmuDwxcVGcNt/Rj4T/fMr/E8+CjaUXEIEulv/4rvzDGHO3KfxiIavBa8YvHhoSDMONs4nUkf4xui/ZNTDsK0wjBltqdr1Y0b75N7g44K3wV/AoshIZyCRgNGzlcOSnBD8K/hTUHVNmqPmDGJIc6dfTDv1psMnHmn0X4+h9AVRMAG0BDXQEf0QlN8HDL8OZMkYygQ=;" parent="1" vertex="1">
          <mxGeometry x="220" y="840.6800000000001" width="110" height="38.63" as="geometry" />
        </mxCell>
        <mxCell id="_cq7_WS7stlt5bRTaMeV-78" value="Reports/ Dashboards" style="text;html=1;strokeColor=none;fillColor=none;align=center;verticalAlign=middle;whiteSpace=wrap;rounded=0;dashed=1;strokeWidth=1;" parent="1" vertex="1">
          <mxGeometry x="230" y="890" width="60" height="30" as="geometry" />
        </mxCell>
      </root>
    </mxGraphModel>
  </diagram>
</mxfile>
